<?xml version="1.0" standalone="no"?>
<!DOCTYPE svg PUBLIC "-//W3C//DTD SVG 1.1//EN" "http://www.w3.org/Graphics/SVG/1.1/DTD/svg11.dtd" >
<svg xmlns="http://www.w3.org/2000/svg">
<metadata>
This is a custom SVG webfont generated by Font Squirrel.
Copyright   : Copyright c 2010 by Markus Schwarz All rights reserved
Designer    : Markus Schwarz
Foundry     : Markus Schwarz
Foundry URL : httpconspectde
</metadata>
<defs>
<font id="socialbatsRegular" horiz-adv-x="2048" >
<font-face units-per-em="2048" ascent="1536" descent="-512" />
<missing-glyph horiz-adv-x="500" />
<glyph unicode="!" d="M254 770q0 160 60.5 300t165 245.5t244.5 166t300 60.5t300 -60.5t244.5 -166t165 -245.5t60.5 -300t-60.5 -300t-165 -244.5t-244.5 -165t-300 -60.5t-300 60.5t-244.5 165t-165 244.5t-60.5 300zM465 748.5q0 -82.5 59 -142.5l66 -65l-101 -99h312v312l-101 -101 l-63 66q-12 12 -12 29q0 6 2 14t10 16l119 119l-113 111l-119 -117q-59 -60 -59 -142.5zM723 977h311l-100 98l65 66q8 8 16.5 10t12.5 2q6 0 14.5 -2t16.5 -10l119 -119l112 113l-119 118q-61 57 -143 58q-80 0 -141 -58l-66 -65l-98 100v-311zM768 362l119 -118 q29 -29 64.5 -44.5t76.5 -15.5t78 15.5t65 44.5l64 65l104 -104l-4 315l-260 -51l49 -49l-65 -64q-8 -8 -16.5 -10t-14.5 -2q-4 0 -12 2t-17 10l-118 117zM883 727q0 -57 6 -100q6 -41 22 -68q14 -27 47 -39q31 -10 76 -10q27 0 51 6q20 2 45 21q18 18 31 45q12 27 13 73v31 h-107v-28q0 -11 -2 -21q0 -16 -4 -33q-2 -8 -10 -16q-6 -6 -17 -6q-12 0 -20 8q-6 6 -13 22q-4 20 -4 45q0 14 -1 31t-1 39q0 23 1 40t1 32q0 14 1 24.5t3 20.5q6 16 13 22q6 6 20 6q16 0 23 -12q6 -12 6 -49v-25h106v27q0 31 -6 55q-4 12 -9 22.5t-15 20.5q-14 16 -41 27 q-31 10 -64 10q-45 0 -71 -12q-29 -10 -48 -37q-16 -27 -26 -70q-6 -41 -6 -102zM1257 743l99 101l65 -66q8 -8 10.5 -16t2.5 -14q0 -16 -13 -29l-118 -119l112 -113l119 119q59 59 59 142t-59 143l-66 63l101 101h-312v-312z" />
<glyph unicode="&#x22;" d="M254 770q0 160 60.5 300t165 245.5t244.5 166t300 60.5t300 -60.5t244.5 -166t165 -245.5t60.5 -300t-60.5 -300t-165 -244.5t-244.5 -165t-300 -60.5t-300 60.5t-244.5 165t-165 244.5t-60.5 300zM532 553h91v211h149v72h-149v133h157v71h-248v-487zM840 913 q0 -47 21.5 -76.5t58.5 -50.5l45 -24q33 -18 48 -32.5t15 -43.5q0 -35 -22.5 -52.5t-51.5 -17.5q-35 0 -62.5 10.5t-41.5 20.5l-4 -80q39 -23 110 -22q72 0 118 35.5t46 111.5q0 51 -20.5 79t-63.5 52l-53 29q-20 12 -35.5 25.5t-15.5 40.5q0 57 67 57q31 0 53.5 -7 t39.5 -14l4 76q-10 4 -37 10.5t-66 6.5q-61 0 -107 -34t-46 -100zM1202 553h127q102 0 168 59.5t66 184.5q0 244 -234 243h-127v-487zM1292 621v350h29q78 0 112.5 -47t34.5 -127q0 -82 -34.5 -129t-112.5 -47h-29z" />
<glyph unicode="#" d="M254 770q0 160 60.5 300t165 245.5t244.5 166t300 60.5q123 0 233.5 -36t204.5 -100.5t165 -154.5t114 -196h-473v39q0 39 -28 66.5t-66 27.5q-41 0 -68 -27.5t-27 -66.5v-238q-10 27 -25.5 48.5t-31.5 41.5q-43 45 -97.5 67.5t-111.5 22.5q-35 0 -80 -10v68 q0 39 -26.5 66.5t-67.5 27.5q-39 0 -66.5 -27.5t-27.5 -66.5v-248q0 -31 19.5 -55.5t47.5 -34.5q31 -10 60.5 1t46.5 38q18 29 42.5 41t51.5 12q41 0 70 -31q16 -16 27.5 -45t11.5 -76v-690q-141 18 -263 86t-212.5 169t-141.5 231.5t-51 277.5zM1110 4q143 16 268 82 t217.5 169t145.5 235.5t53 279.5q0 49 -6 96h-520v-100q0 -16 5 -29.5t21 -27.5q16 -16 56.5 -29.5t117.5 -15.5q39 0 67 -27t28 -66q0 -41 -28 -67.5t-67 -26.5q-98 -2 -171.5 21.5t-122.5 66.5q-41 33 -64 78v-639z" />
<glyph unicode="$" d="M254 770q0 160 60.5 300t165 245.5t244.5 166t300 60.5t300 -60.5t244.5 -166t165 -245.5t60.5 -300t-60.5 -300t-165 -244.5t-244.5 -165t-300 -60.5t-300 60.5t-244.5 165t-165 244.5t-60.5 300zM702 281q0 -29 27 -45q55 -33 133 -46.5t162 -13.5t162 13.5t133 46.5 q27 16 27 45v327q0 29 -27 45q-55 33 -133 46.5t-162 13.5t-162 -13.5t-133 -46.5q-27 -16 -27 -45v-327zM844 336v219q31 12 79 19.5t101 7.5t101.5 -7.5t78.5 -19.5v-219q-31 -14 -79 -21.5t-101 -7.5t-101 7.5t-79 21.5zM885 1335l51 -530q4 -23 19.5 -36t37.5 -9l64 8 q23 4 39 20.5t20 38.5l68 508q4 23 -9.5 37t-35.5 14h-207q-23 0 -37 -14t-10 -37z" />
<glyph unicode="%" d="M254 770q0 160 60.5 300t165 245.5t244.5 166t300 60.5t300 -60.5t244.5 -166t165 -245.5t60.5 -300t-60.5 -300t-165 -244.5t-244.5 -165t-300 -60.5t-300 60.5t-244.5 165t-165 244.5t-60.5 300zM547 911q-16 -55 9.5 -107t80.5 -69q23 -8 68 -9t97 1t102 6t83 10 q-29 -14 -73 -39.5t-87 -54t-78.5 -56.5t-50.5 -46q-35 -47 -25.5 -104.5t56.5 -92.5q25 -16 51.5 -22t53 -2t51 18t41.5 39q14 18 29.5 60t28.5 92.5l24.5 99.5t15.5 82q4 -33 14.5 -82t24.5 -99.5t29.5 -92.5t29.5 -60q33 -47 91.5 -57.5t105.5 24.5t56 92.5t-25 104.5 q-14 18 -50 46t-79 56.5t-87 54t-73 39.5q33 -6 83 -10t102 -6t97.5 -1t67.5 9q55 16 81 68.5t9 107.5q-18 55 -70.5 82t-107.5 8q-23 -6 -59.5 -31.5t-77.5 -58.5l-79 -65q-38 -33 -60 -58l34.5 75t39 94.5t30.5 92.5t12 66q0 59 -40 100t-99 41t-100 -40.5t-41 -100.5 q0 -23 12 -66.5t30.5 -92t39 -94.5t36.5 -75q-23 25 -60 58l-79 65q-41 33 -79 58.5t-58 31.5q-55 18 -107.5 -8.5t-70.5 -81.5z" />
<glyph unicode="&#x26;" d="M254 770q0 160 60.5 300t165 245.5t244.5 166t300 60.5t300 -60.5t244.5 -166t165 -245.5t60.5 -300t-60.5 -300t-165 -244.5t-244.5 -165t-300 -60.5t-300 60.5t-244.5 165t-165 244.5t-60.5 300zM506 285h233v854l465 -467v311l-284 285h-414v-983zM842 569l286 -284 h414v983h-233v-854l-467 467v-312z" />
<glyph unicode="'" d="M254 770q0 160 60.5 300t165 245.5t244.5 166t300 60.5t300 -60.5t244.5 -166t165 -245.5t60.5 -300t-60.5 -300t-165 -244.5t-244.5 -165t-300 -60.5t-300 60.5t-244.5 165t-165 244.5t-60.5 300zM365 834l45 -140h75l23 -69h76l47 -140h76l22 -69h76l22 -70h76l47 -139 h533l-23 69h76l-45 140h76l-45 139h75l-114 348h-76l-23 70h-151l-25 69h-303l-69 207h-76l-23 70h-151l22 -70h-76l136 -415h-76l-23 69h-151l22 -69h-75zM440 834h152l22 -70h76l25 -70h76l-183 555h152l137 -415h76l-45 139h151l45 -139h78l-47 139h78l45 -139h76l-23 69 h76l115 -348h-76l45 -139h-76l45 -140h-456l-23 70h-78l-22 70h-76l-23 69h-75l-48 140h-75l-23 69h-76zM942 694l70 -209h75l-69 209h-76zM1096 694l67 -209h76l-68 209h-75zM1247 694l68 -209h76l-68 209h-76z" />
<glyph unicode="(" d="M254 770q0 160 60.5 300t165 245.5t244.5 166t300 60.5t300 -60.5t244.5 -166t165 -245.5t60.5 -300t-60.5 -300t-165 -244.5t-244.5 -165t-300 -60.5t-300 60.5t-244.5 165t-165 244.5t-60.5 300zM397 494q51 -31 92 -31q113 0 134 119q59 -20 129 -21q145 0 241 76 q100 76 101 182q0 106 -101 180q-100 72 -241 72q-143 0 -240 -72q-100 -74 -100 -180q0 -102 92 -176q0 -4 1 -8t1 -8q0 -55 -31 -92q-31 -35 -78 -41zM672 547q27 -66 123 -113q92 -45 223 -51q0 -98 -103 -139q100 0 152 28q66 33 92 115q131 18 215 74q84 57 84 129 q0 111 -119 166q-92 43 -223 43q-14 -129 -145 -209q-84 -51 -197 -51h-33q-16 0 -34 4q-10 0 -16.5 1t-10.5 1q-6 0 -8 2zM874 1102q0 -12 7 -37q82 -6 149 -72q68 -61 86 -137q49 -14 101 -14q20 0 40.5 2t40.5 6q29 -63 70 -92q57 -37 160 -37q-63 55 -66 57 q-31 33 -30 86v19q0 8 2 18q123 80 122 201q0 106 -100 174q-100 70 -239 70q-141 0 -242 -70t-101 -174z" />
<glyph unicode=")" d="M254 770q0 160 60.5 300t165 245.5t244.5 166t300 60.5t300 -60.5t244.5 -166t165 -245.5t60.5 -300t-60.5 -300t-165 -244.5t-244.5 -165t-300 -60.5t-300 60.5t-244.5 165t-165 244.5t-60.5 300zM391 391h275q80 0 129 17q35 10 59.5 24t44.5 33q51 51 76 127 q23 59 22 153q0 98 -22 173q-25 72 -70 116q-45 49 -108 68q-49 12 -140 12h-266v-723zM537 514v479h65q94 0 121 -8q41 -10 68 -33q25 -27 40 -71q16 -45 17 -127q0 -43 -4 -76t-13 -57q-14 -47 -36 -70q-25 -20 -60 -31q-29 -6 -88 -6h-110zM1059 391h588v123h-412 l397 487v113h-530v-121h338l-381 -471v-131z" />
<glyph unicode="*" d="M254 770q0 160 60.5 300t165 245.5t244.5 166t300 60.5t300 -60.5t244.5 -166t165 -245.5t60.5 -300t-60.5 -300t-165 -244.5t-244.5 -165t-300 -60.5t-300 60.5t-244.5 165t-165 244.5t-60.5 300zM719 272h229v408h367v188h-367v232h391v188h-620v-1016z" />
<glyph unicode="+" d="M256 702l319 160l344 161l341 153l313 135q16 -16 33 -36l32 -38l-308 -206l-337 -227l-330 -230l-292 -212q-97 152 -115 340zM262 885q20 139 88 259t169.5 209t230.5 139t274 50q125 0 237.5 -38t206.5 -105l-226 -94l-310 -130l-344 -147zM541 172l267 257l295 267 l297 260l271 232q14 -20 26.5 -43t22.5 -45l-208 -254l-225 -279l-223 -282l-204 -267q-90 20 -169.5 59.5t-149.5 94.5zM1051 2l409 599l297 405q37 -111 37 -236q0 -156 -58.5 -293t-158.5 -241.5t-235 -166t-291 -67.5z" />
<glyph unicode="," d="M254 770q0 160 60.5 300t165 245.5t244.5 166t300 60.5t300 -60.5t244.5 -166t165 -245.5t60.5 -300t-60.5 -300t-165 -244.5t-244.5 -165t-300 -60.5t-300 60.5t-244.5 165t-165 244.5t-60.5 300zM514 489.5q-2 -26.5 3 -49t19.5 -45t45.5 -51.5q31 -33 72.5 -49 t86.5 -16h197q98 0 197 2q61 0 116.5 14t102.5 57q33 31 52 66t28 100q6 59 16 128t-10 128q-16 53 -57.5 91t-94.5 55q-23 6 -46 7t-48 1h-123q-61 0 -121 -2q-25 0 -54.5 1t-58 -1t-52 -9.5t-33.5 -23.5q2 18 4 47t10 56.5t22.5 47t40.5 19.5h119q78 2 157 2h157 q27 0 29.5 -16.5t2.5 -22.5q49 -2 95 -2h96q0 41 -2 55.5t-6 30.5q-14 53 -55.5 88t-94.5 49q-47 14 -100 15.5t-101 1.5h-129q-63 0 -129 -2q-66 0 -123 -16.5t-104 -65.5t-59.5 -106.5t-18.5 -119.5q-6 -61 -13 -121.5t-13 -121.5l-9 -80l-8 -78q-4 -37 -6 -63.5zM715 506 q2 25 4 39t3 26.5t2 26.5t5 39q4 27 8 46t29 36q12 8 29 8h32h120q60 0 120 2q39 0 79 2t79 -2q29 -4 27.5 -27.5t-5.5 -42.5q-2 -16 -3 -38.5t-3 -45t-6 -40t-10 -25.5q-14 -23 -31.5 -27t-40.5 -4q-104 0 -205.5 -1t-206.5 -1q-12 0 -20 7.5t-6 21.5z" />
<glyph unicode="-" d="M252 728v38v40q0 19 2 38l74 12l4 33q2 16 6 33l-64 36q18 74 54 144l71 -12q8 14 15.5 28.5t17.5 28.5l-47 55q23 33 47 62l51 57l64 -37l24 22q12 11 27 21l-25 68q31 23 65 41t69 34l45 -55q35 14 63 23v73q37 10 74 16.5t78 10.5l24 -70q10 2 33 2h16q8 0 17 -2 l24 70q41 -4 78 -10t74 -17v-73q29 -8 63 -23l45 55q35 -16 69 -34.5t65 -40.5l-25 -68l26 -21l25 -22l62 37q29 -29 53 -57.5t47 -61.5l-47 -55q10 -14 17 -28.5t16 -28.5l71 12q16 -35 29.5 -71t24.5 -73l-64 -36q4 -16 6 -33l4 -33l72 -12q4 -18 4 -38v-40v-38 q0 -19 -4 -38l-72 -12l-4 -33q-2 -16 -6 -33l64 -37q-10 -37 -23.5 -72.5t-30.5 -70.5l-71 12q-16 -33 -33 -57l47 -55q-23 -33 -47.5 -61.5t-52.5 -57.5l-62 37l-25 -22l-26 -21l25 -68q-57 -43 -134 -76l-45 56q-35 -14 -63 -23v-73q-70 -20 -152 -27l-24 70q-8 -2 -17 -3 h-16q-23 0 -33 3l-24 -70q-82 6 -152 27v73q-29 8 -63 23l-45 -56q-76 33 -134 76l25 68q-14 10 -27 21l-24 22l-64 -37l-51 57q-25 29 -47 62l47 55q-16 25 -33 57l-71 -12q-35 70 -54 143l64 37q-4 16 -6 33l-4 33l-74 12q-2 19 -2 38zM461 795q0 -123 48 -227.5 t134 -178.5q-61 72 -96 162t-35 192q0 111 42 208.5t114.5 171t171 115.5t209.5 42q102 0 191 -36t161 -97q-74 86 -178.5 135t-225.5 49q-111 0 -209 -42t-170.5 -114.5t-114.5 -170.5t-42 -209zM633 758q0 -92 37 -170t100 -131q-47 53 -72.5 119.5t-25.5 142.5 q0 82 31.5 155.5t85 128t126 86t156.5 31.5q78 0 144.5 -26.5t119.5 -73.5q-55 63 -133 100t-168 37q-84 0 -156.5 -31.5t-127 -85t-86 -127t-31.5 -155.5z" />
<glyph unicode="." d="M254 770q0 160 60.5 300t165 245.5t244.5 166t300 60.5t300 -60.5t244.5 -166t165 -245.5t60.5 -300t-60.5 -300t-165 -244.5t-244.5 -165t-300 -60.5t-300 60.5t-244.5 165t-165 244.5t-60.5 300zM524 295h1002v147h-293l47 76q25 41 43 76q27 0 33 14l-146 43h201v389 h-756v-389h219l-141 -41q20 -41 37.5 -87t26.5 -81h-273v-147zM549 1106h956v147h-956v-147zM811 793v106h434v-106h-434zM831 442l123 37q-8 37 -30.5 84t-44.5 88h278q-14 -43 -34.5 -91t-43.5 -83q25 -10 50 -18l51 -17h-349z" />
<glyph unicode="0" d="M254 770q0 160 60.5 300t165 245.5t244.5 166t300 60.5t300 -60.5t244.5 -166t165 -245.5t60.5 -300t-60.5 -300t-165 -244.5t-244.5 -165t-300 -60.5t-300 60.5t-244.5 165t-165 244.5t-60.5 300zM498 410h198v198h-198v-198zM782 410h199v198h-199v-198zM1067 410h199 v198h-199v-198zM1352 410h198v198h-198v-198z" />
<glyph unicode="1" d="M254 770q0 160 60.5 300t165 245.5t244.5 166t300 60.5t300 -60.5t244.5 -166t165 -245.5t60.5 -300t-60.5 -300t-165 -244.5t-244.5 -165t-300 -60.5t-300 60.5t-244.5 165t-165 244.5t-60.5 300zM596 913h80l-37 -172q-18 -82 -37 -145l100 -51l9 30l27 -20l28 -20 q-63 -113 -168 -170q20 -16 40.5 -45t33.5 -52q57 37 103 83t81 106l53 -50q25 -24 41 -47l72 99q-18 23 -47 50.5t-64 55.5q35 86 54.5 192.5t29.5 235.5l6 21l-63 14l-20 -2h-107q10 45 17.5 88t15.5 84q23 0 26 16l-137 15l-17 -99l-20 -104h-100v-113zM737 688l25 111 l24 114h88q-10 -78 -23 -146.5t-36 -127.5q-20 14 -40 26.5t-38 22.5zM987 741h199v-331q0 -16 -21 -17h-44q-34 0 -68 2q10 -27 20 -61.5t14 -61.5q63 0 105.5 4.5t68 17.5t36 39.5t10.5 72.5v335h96q-10 -41 -21.5 -77.5l-21.5 -65.5l102 -33l25.5 69t22 65.5t19.5 70.5 l19 80l-67 6l-23 -2h-102l30 35q-12 10 -25 22.5t-30 24.5q47 43 93 94t79 94q18 4 25 15l-96 57l-21 -6h-397v-111h301q-16 -23 -36 -43l-38 -39q-23 16 -46.5 29.5t-45.5 24.5l-76 -80q45 -23 91 -53.5t87 -63.5h-264v-113z" />
<glyph unicode="2" d="M254 770q0 160 60.5 300t165 245.5t244.5 166t300 60.5t300 -60.5t244.5 -166t165 -245.5t60.5 -300t-60.5 -300t-165 -244.5t-244.5 -165t-300 -60.5t-300 60.5t-244.5 165t-165 244.5t-60.5 300zM530 399q0 -45 31 -75.5t76 -30.5h774q45 0 76 30.5t31 75.5v775 q0 43 -31 74.5t-76 31.5h-774q-45 0 -76 -31.5t-31 -74.5v-775zM631 434v705q0 14 10 28q16 12 31 13h704q12 0 29 -13q12 -12 12 -28v-705q0 -18 -12 -31q-14 -10 -29 -10h-704q-16 0 -31 10q-10 15 -10 31zM745 778q0 -61 20.5 -114.5t59.5 -90.5q41 -37 96.5 -56 t133.5 -19q57 0 108 10t80 20v299h-209v-100h86v-119q-20 -8 -61 -8q-80 0 -129 49t-49 137q0 92 53 137.5t133 45.5q47 0 78 -7.5t53 -17.5l27 103q-20 10 -60.5 18t-95.5 8q-139 0 -230.5 -77t-93.5 -218z" />
<glyph unicode="3" d="M254 770q0 160 60.5 300t165 245.5t244.5 166t300 60.5t300 -60.5t244.5 -166t165 -245.5t60.5 -300t-60.5 -300t-165 -244.5t-244.5 -165t-300 -60.5t-300 60.5t-244.5 165t-165 244.5t-60.5 300zM432 961l166 -228v-344q0 -45 32 -75.5t75 -30.5h679q43 0 74 30.5 t31 75.5v746q0 45 -31 75.5t-74 30.5h-679q-43 0 -75 -30.5t-32 -75.5v-117zM772 553v397h537v-397h-135v266h-66v-266h-135v266h-68v-266h-133z" />
<glyph unicode="4" d="M254 770q0 160 60.5 300t165 245.5t244.5 166t300 60.5t300 -60.5t244.5 -166t165 -245.5t60.5 -300t-60.5 -300t-165 -244.5t-244.5 -165t-300 -60.5t-300 60.5t-244.5 165t-165 244.5t-60.5 300zM442 481h107v211h104v-211h107v-106h211v106h-211v107h528v-107h-211 v-106h211v106h107v211h104v-211h107v318h-107v106h-104v105h-107v106h107v105h-107v-105h-106v-106h-316v106h-106v105h-107v-105h107v-106h-107v-105h-104v-106h-107v-318zM760 799v106h106v-106h-106zM1182 799h106v106h-106v-106z" />
<glyph unicode="5" d="M254 770q0 160 60.5 300t165 245.5t244.5 166t300 60.5t300 -60.5t244.5 -166t165 -245.5t60.5 -300q0 -152 -55.5 -286t-150.5 -237.5t-224 -168t-279 -76.5v115l168 121q27 -16 54 -17q41 0 69.5 29t28.5 69q0 41 -28.5 71t-69.5 30t-70 -30t-29 -71v-10l-123 -88v293 l168 121q12 -6 24.5 -10t29.5 -4q41 0 69.5 28.5t28.5 69.5t-28.5 70.5t-69.5 29.5t-70 -29.5t-29 -70.5v-12l-123 -89v277l170 121q25 -14 52 -15q41 0 69.5 30t28.5 71t-28.5 69.5t-69.5 28.5t-70 -28.5t-29 -69.5v-15l-123 -88v418h-124v-221l-123 88q2 6 2 19 q0 41 -29 70.5t-70 29.5t-69.5 -30t-28.5 -70q0 -41 28.5 -70t69.5 -29q25 0 47 13l173 -125v-277l-121 90v17q0 41 -29 69.5t-70 28.5t-69.5 -28.5t-28.5 -69.5t28.5 -70t69.5 -29q27 0 50 13l170 -125v-293l-121 88v16q0 41 -29 71t-70 30t-69.5 -30t-28.5 -71t28.5 -69.5 t69.5 -28.5q27 0 50 12l170 -123v-311q-147 12 -276.5 76.5t-224.5 168t-150.5 237.5t-55.5 286z" />
<glyph unicode="6" d="M254 770q0 160 60.5 300t165 245.5t244.5 166t300 60.5t300 -60.5t244.5 -166t165 -245.5t60.5 -300t-60.5 -300t-165 -244.5t-244.5 -165t-300 -60.5t-300 60.5t-244.5 165t-165 244.5t-60.5 300zM442.5 550q-8.5 -83 29.5 -154.5t114 -110.5t189.5 -37t258.5 63 q-96 -23 -176 -4t-138 63t-95 107.5t-46.5 133t11 138t76.5 123.5q-106 -70 -160.5 -154.5t-63 -167.5zM637 1087q-20 -57 1 -131.5t73.5 -135t129.5 -90.5t163 5q-74 4 -122 41t-69.5 90.5t-18.5 111.5t32.5 106.5t86 76t138.5 17.5q29 -4 69.5 -13.5t83.5 -14.5t84 -1 t71 28.5t41 75t-3 138.5q-8 -74 -40 -117t-75 -61.5t-94 -17.5t-96 17q-47 14 -115 21.5t-135.5 -3.5t-123.5 -45.5t-81 -97.5zM827 547q43 12 79 -1.5t67 -40t53.5 -61t38.5 -66.5t23.5 -56.5t7.5 -28.5q41 76 36.5 140.5t-43 103t-107.5 45t-155 -34.5zM1098.5 769.5 q11.5 -64.5 39 -128t59.5 -123t44 -106.5t-9.5 -79t-101.5 -40q113 -2 164.5 20.5t62.5 62.5t-6.5 92t-39 109.5t-36.5 117t-1 110.5q10 39 43 62.5t73 42.5l78 40q39 20 62.5 54t24.5 85.5t-33 131.5q12 -66 -6.5 -105t-55.5 -62.5t-87 -35.5t-99 -27.5t-91 -38t-65 -63.5 q-31 -55 -19.5 -119.5z" />
<glyph unicode="7" d="M254 770q0 121 33 225l123 -82l159 -104l84 -55l-82 -52l-157 -98l-121 -78q-39 115 -39 244zM332 1108q78 162 221 273.5t324 146.5h2q6 0 8 2h4q4 0 6 1t6 1h6q2 2 4 2h11l4 2h10h4q2 2 10 2h2q8 0 13 2h2h10h4h12h2h11h4q4 2 12 2q160 0 300 -60.5t244.5 -166 t165 -245.5t60.5 -300t-60.5 -300t-165 -244.5t-244.5 -165t-300 -60.5q-111 0 -213 29.5t-189 84t-158 129t-120 167.5l117 73q39 -78 97 -141t131 -108.5t158 -71t177 -25.5q131 0 245.5 49.5t200.5 135.5t135.5 200.5t49.5 245.5t-49.5 245.5t-135.5 200.5t-200.5 135.5 t-245.5 49.5q-96 0 -184 -26.5t-162 -76t-132.5 -117t-94.5 -149.5zM596 932q25 63 68 117.5t98 93.5t121.5 60.5t140.5 21.5q94 0 177 -36t145.5 -97.5t98.5 -145.5t36 -178t-36 -177t-98.5 -145.5t-145.5 -98.5t-177 -36q-139 0 -249.5 74t-166.5 190l271 170z" />
<glyph unicode="8" d="M254 770q0 160 60.5 300t165 245.5t244.5 166t300 60.5t300 -60.5t244.5 -166t165 -245.5t60.5 -300t-60.5 -300t-165 -244.5t-244.5 -165t-300 -60.5t-300 60.5t-244.5 165t-165 244.5t-60.5 300zM498 776q0 -227 157 -385q156 -160 377 -160q227 0 375 166 q68 76 90 158q16 47 22.5 98.5t6.5 110.5v35h-434v-148h262q-12 -115 -105 -190q-92 -80 -211 -80q-137 0 -256 106q-125 113 -125 289q0 172 113 285q115 115 281 115q186 0 315 -172l113 108q-100 113 -201 162q-104 51 -231 51q-229 0 -390 -160q-159 -160 -159 -389z " />
<glyph unicode="9" d="M254 770q0 160 60.5 300t165 245.5t244.5 166t300 60.5t300 -60.5t244.5 -166t165 -245.5t60.5 -300t-60.5 -300t-165 -244.5t-244.5 -165t-300 -60.5t-300 60.5t-244.5 165t-165 244.5t-60.5 300zM692 633q-8 -86 35 -164q39 -70 106.5 -102.5t145.5 -32.5 q59 0 119.5 24.5t103.5 67.5q12 12 26.5 33.5t26 43t14.5 37t-5 19.5q-10 4 -13.5 6t-9.5 -6q-10 -12 -18.5 -25.5t-18.5 -25.5q-43 -53 -92 -82q-47 -29 -106.5 -33t-106.5 33q-31 25 -42 60.5t-11 74.5t8 78t18 70q2 8 6.5 29.5t8.5 25.5q10 -2 18 -3t17 -1q18 -2 36 -2 h37l70 8q35 4 70 14q35 8 74.5 20.5t75.5 33t64.5 48t43.5 64.5q18 43 10 79t-31.5 62.5t-59.5 43t-75 20.5q-84 12 -161 -15.5t-142.5 -79.5t-116.5 -121t-82 -138q-35 -78 -43 -164zM909 823q25 59 62 115.5t86 97.5q14 12 38.5 27.5t52.5 25t53.5 8.5t41.5 -22 q20 -20 19.5 -47t-12 -52.5t-30 -48t-34.5 -34.5q-47 -37 -101.5 -55.5t-113.5 -18.5q-16 0 -31 1t-31 3z" />
<glyph unicode=":" d="M254 770q0 160 60.5 300t165 245.5t244.5 166t300 60.5t300 -60.5t244.5 -166t165 -245.5t60.5 -300t-60.5 -300t-165 -244.5t-244.5 -165t-300 -60.5t-300 60.5t-244.5 165t-165 244.5t-60.5 300zM755 1212.5q5 -20.5 18 -35t31.5 -21.5t37.5 -5q37 4 57.5 40t3.5 73 q-10 23 -32.5 35t-53.5 6q-23 -4 -38 -18.5t-21 -31.5q-8 -22 -3 -42.5zM762 709.5q2 -183.5 6 -357.5q27 -4 61.5 -4t63.5 4q4 129 2 258t-2 258q18 -12 45 -18t56.5 -9t58 0t53.5 9q14 4 26 8l21 8q-2 -129 -3 -258t3 -256q27 -4 61.5 -4t63.5 4q4 174 5 358.5t-5 360.5v2 q-6 -10 -13.5 -15t-15.5 -14q-47 -43 -105.5 -74.5t-148.5 -25.5q-41 2 -73.5 15.5t-59.5 29.5q-25 16 -45 34.5l-39 37.5q-10 10 -10 6q-8 -174 -6 -357.5zM1145 1194q10 -23 29.5 -33t41 -10t41 11.5t29.5 31.5q12 23 9 44.5t-15 37.5t-32.5 24.5t-45.5 4.5 q-35 -4 -55 -38t-2 -73z" />
<glyph unicode=";" d="M254 770q0 160 60.5 300t165 245.5t244.5 166t300 60.5t300 -60.5t244.5 -166t165 -245.5t60.5 -300q0 -109 -28.5 -210t-82 -188t-127 -158t-161.5 -120v242q0 84 -35 149q-29 49 -66 84q-29 27 -63.5 44.5t-69.5 27.5q-68 20 -145 21q-59 0 -129 -17q-51 -14 -92 -37 q-33 -18 -61.5 -44.5t-51.5 -61.5q-43 -72 -43 -166v-234q-86 49 -157.5 120t-122 157t-78 185.5t-27.5 205.5zM788 924q0 -49 18.5 -92.5t51.5 -76t76 -51t92 -18.5t92 18.5t76 51t51.5 75.5t18.5 93q0 49 -18.5 92t-51.5 75.5t-76 51t-92 18.5t-92 -18.5t-76 -51 t-51.5 -75.5t-18.5 -92z" />
<glyph unicode="&#x3c;" d="M254 770q0 111 29.5 212t83.5 189h151l8 64h-116q104 141 264 224t350 83t349 -83t265 -224h-108l-8 -64h159q53 -88 83 -189t30 -212q0 -152 -54 -285t-151 -237h-1130q-96 104 -150.5 237t-54.5 285zM524 184h1000q-102 -86 -229.5 -135t-270.5 -49t-270.5 49 t-229.5 135zM559 1135h350l-94 -844h203l96 844h348l17 135h-904z" />
<glyph unicode="=" horiz-adv-x="2050" d="M254 770q0 160 60.5 300t165 245.5t244.5 166t300 60.5t300 -60.5t244.5 -166t165 -245.5t60.5 -300t-60.5 -300t-165 -244.5t-244.5 -165t-300 -60.5t-300 60.5t-244.5 165t-165 244.5t-60.5 300zM338 846q-4 -47 15.5 -87t52.5 -69q-2 -12 -3.5 -23.5t-3.5 -23.5 q-6 -96 38 -179t123 -146.5t184.5 -103.5t226.5 -48q119 -10 230.5 13.5t198.5 73.5t142 127t64 173q2 14 0 33q47 20 76.5 60t35.5 93q2 39 -11 75t-37.5 63.5t-59.5 45t-74 21.5q-70 2 -129 -37q-129 86 -305 115l39 166l114 -35q4 -72 51.5 -122t116.5 -56 q76 -6 133.5 42t63.5 124q2 37 -9.5 71.5t-35 61t-55 44t-68.5 19.5q-49 4 -92 -17.5t-70 -57.5l-176 51q-18 6 -45 -4q-10 -6 -16 -16.5t-11 -20.5l-55 -240q-88 2 -170 -13t-153 -50q-49 45 -117 51q-39 2 -75 -10.5t-64.5 -35t-47 -56t-22.5 -72.5zM424 840q4 43 37 70.5 t80 23.5q27 0 49 -14l-23 -14q-12 -7 -22 -17q-43 -35 -72 -78q-8 -10 -14 -22.5t-13 -22.5q-26 33 -22 74zM535 631q0 4 1 8t1 6q4 31 14 49q10 27 20 45q33 51 91 92q10 6 20 13.5t20 13.5q12 4 23.5 10t24.5 11q109 45 237 45q12 0 23.5 -1t25.5 -1l49 -7 q68 -10 128.5 -32.5t111.5 -53.5q10 -8 19.5 -14t19.5 -14t18 -17l19 -18q41 -41 67 -98q8 -25 13 -47q6 -31 4 -52v-10q-4 -68 -46 -124t-109.5 -95t-156 -58.5t-186.5 -11.5q-98 6 -183 39t-146.5 82t-94 110.5t-28.5 129.5zM726 523.5q-1 -17.5 9 -34.5q37 -55 113 -86 q68 -31 162 -36q94 -12 166 6q39 12 69.5 26.5t54.5 36.5q25 31 5 68q-29 31 -54 2q-10 -10 -34.5 -22.5t-55.5 -20.5q-31 -10 -67.5 -11t-77.5 3t-76 13t-66 21q-61 27 -81 60q-10 14 -24.5 15t-31.5 -13q-10 -10 -11 -27.5zM735 709q-4 -41 20.5 -71t65.5 -32 q41 -4 71 21.5t32 66.5q4 39 -21.5 69t-66.5 32q-39 4 -69 -20.5t-32 -65.5zM1126 678q-2 -39 24 -68.5t64 -34.5q41 -2 70 24t33 65q2 41 -22.5 69.5t-65.5 32.5q-39 2 -69 -22.5t-34 -65.5zM1350 1163q2 31 26 58q29 33 74 28q41 -4 65.5 -31.5t20.5 -68.5 q-4 -39 -31.5 -63.5t-68.5 -20.5q-31 2 -55.5 22.5t-28.5 51.5q0 6 -1 12t-1 12zM1470 848q29 16 64 12q47 -4 76.5 -36.5t25.5 -78.5q-2 -27 -15 -47t-34 -32q-2 12 -6 23l-8 24q-23 53 -64 98q-10 10 -19.5 18.5t-19.5 18.5z" />
<glyph unicode="&#x3e;" d="M254 770q0 160 60.5 300t165 245.5t244.5 166t300 60.5t300 -60.5t244.5 -166t165 -245.5t60.5 -300t-60.5 -300t-165 -244.5t-244.5 -165t-300 -60.5t-300 60.5t-244.5 165t-165 244.5t-60.5 300zM791 268l589 295l-589 295v-590zM791 950l294 -147l295 147l-589 293 v-293z" />
<glyph unicode="?" d="M254 770q0 160 60.5 300t165 245.5t244.5 166t300 60.5t300 -60.5t244.5 -166t165 -245.5t60.5 -300t-60.5 -300t-165 -244.5t-244.5 -165t-300 -60.5t-300 60.5t-244.5 165t-165 244.5t-60.5 300zM647 377l17 -8q82 -37 163 -56q82 -18 183 -18q92 0 166 22 q68 25 120 66q51 41 78 98q27 55 27 117q0 113 -60 172q-53 57 -163 90h-2q-49 12 -123 25l-62 11l-47 9q-39 10 -58.5 20.5t-27.5 18.5q-20 23 -20 68q0 47 45 78q51 35 137 34q41 0 81 -7t81 -19q29 -10 59.5 -28.5t54.5 -35.5l58 -41h12v62v141v18l-18 9q-68 29 -146 47 q-84 18 -182 18q-158 0 -260 -78q-109 -80 -109 -209q0 -111 66 -182q66 -68 194 -96q57 -12 115 -18q25 -4 48.5 -9.5t45.5 -11.5q51 -12 76 -37q20 -20 21 -65q0 -53 -50 -86q-55 -37 -155 -37q-37 0 -77 7t-81 23q-43 16 -78 38t-61 40q-31 23 -53 45h-15v-65v-150v-20z " />
<glyph unicode="@" d="M254 770q0 160 60.5 300t165 245.5t244.5 166t300 60.5t300 -60.5t244.5 -166t165 -245.5t60.5 -300t-60.5 -300t-165 -244.5t-244.5 -165t-300 -60.5t-300 60.5t-244.5 165t-165 244.5t-60.5 300zM418 1020l141 -725l1071 207l-141 727zM582 864l456 -178l359 338 l80 -418l-815 -160zM727 948l502 96l-219 -206z" />
<glyph unicode="A" horiz-adv-x="2050" d="M254 770q0 160 60.5 300t165 245.5t244.5 166t300 60.5t300 -60.5t244.5 -166t165 -245.5t60.5 -300t-60.5 -300t-165 -244.5t-244.5 -165t-300 -60.5t-300 60.5t-244.5 165t-165 244.5t-60.5 300zM557 918l234 -228l-56 -321l289 151l289 -151l-56 321l234 228l-322 47 l-145 292l-29 -57l-116 -235z" />
<glyph unicode="B" d="M254 770q0 160 60.5 300t165 245.5t244.5 166t300 60.5t300 -60.5t244.5 -166t165 -245.5t60.5 -300t-60.5 -300t-165 -244.5t-244.5 -165t-300 -60.5t-300 60.5t-244.5 165t-165 244.5t-60.5 300zM618 621q0 -53 20.5 -99.5t55.5 -81t81 -55t99 -20.5h297q106 0 163 46 t81 124q31 97 31 179q0 60 -16 111q-8 23 -24.5 31t-37 11t-39 4t-31.5 10q-12 8 -15 54t-17 101q-16 59 -73.5 100.5t-137.5 41.5h-181q-53 0 -99 -20.5t-81 -55.5t-55.5 -82t-20.5 -100v-299zM829 625q0 20 14.5 34.5t35.5 14.5h288q23 0 36.5 -14.5t13.5 -34.5t-13.5 -35 t-36.5 -15h-288q-20 0 -35 15t-15 35zM829 918q0 -20 14.5 -35t35.5 -15h143q20 0 34.5 14.5t14.5 35.5q0 23 -14.5 36t-34.5 13h-143q-20 0 -35 -13t-15 -36z" />
<glyph unicode="C" d="M254 770q0 160 60.5 300t165 245.5t244.5 166t300 60.5t300 -60.5t244.5 -166t165 -245.5t60.5 -300t-60.5 -300t-165 -244.5t-244.5 -165t-300 -60.5t-300 60.5t-244.5 165t-165 244.5t-60.5 300zM633 365h184l14 49q23 -29 56 -45q29 -16 63 -17q47 0 84 27 q35 25 45 61q10 37 11 107v293q0 35 -1.5 59.5t-3.5 34.5q-2 20 -18 45q-16 23 -45 35q-16 6 -32.5 10t-39.5 4q-31 0 -65 -14q-29 -16 -54 -43v188h-198v-794zM831 551v280q0 47 5 68q6 12 24 12t25 -14q6 -16 6 -66v-274q0 -59 -6 -74q-2 -14 -23 -14q-18 0 -24 14 q-7 15 -7 68zM1137 365h80v161h69v-161h189v794h-258v-633h-80v-161z" />
<glyph unicode="D" horiz-adv-x="2050" d="M254 770q0 160 60.5 300t165 245.5t244.5 166t300 60.5t300 -60.5t244.5 -166t165 -245.5t60.5 -300t-60.5 -300t-165 -244.5t-244.5 -165t-300 -60.5t-300 60.5t-244.5 165t-165 244.5t-60.5 300zM631 381h784v358v426h-426h-358v-784zM696 446v324h324v-324h-324z M1020 770h323v324h-323v-324z" />
<glyph unicode="E" horiz-adv-x="2050" d="M254 770q0 160 60.5 300t165 245.5t244.5 166t300 60.5t300 -60.5t244.5 -166t165 -245.5t60.5 -300q0 -123 -37 -235.5t-103.5 -207t-157.5 -166t-200 -112.5v660h166v163h-166v84q0 37 18.5 60.5t39.5 23.5h139v164h-139q-47 0 -87 -19.5t-71 -53t-48.5 -78.5 t-17.5 -97v-84h-81h-84h-82v84q0 37 18.5 60.5t38.5 23.5h139v164h-139q-47 0 -87 -19.5t-70.5 -53t-48 -78.5t-17.5 -97v-84h-166v-163h166v-646q-102 45 -187.5 117t-146.5 163t-95 199.5t-34 227.5zM883 12v697h82h84h81v-701q-47 -8 -106 -8q-73 0 -141 12z" />
<glyph unicode="F" d="M254 770q0 160 60.5 300t165 245.5t244.5 166t300 60.5t300 -60.5t244.5 -166t165 -245.5t60.5 -300t-60.5 -300t-165 -244.5t-244.5 -165t-300 -60.5t-300 60.5t-244.5 165t-165 244.5t-60.5 300zM477 770q0 -51 19.5 -95t52.5 -77t77 -52.5t95 -19.5t95 19.5t77 52.5 t52.5 77t19.5 95t-19.5 95t-52.5 78t-77 53.5t-95 19.5t-95 -19.5t-77 -53.5t-52.5 -78t-19.5 -95zM1083 770q0 -51 19.5 -95t52.5 -77t77 -52.5t95 -19.5t95 19.5t77 52.5t52.5 77t19.5 95t-19.5 95t-52.5 78t-77 53.5t-95 19.5t-95 -19.5t-77 -53.5t-52.5 -78t-19.5 -95z " />
<glyph unicode="G" d="M258 770v772h770q160 0 300 -60.5t245.5 -166t166 -245.5t60.5 -300t-60.5 -300t-166 -244.5t-245.5 -165t-300 -60.5t-300 60.5t-244.5 165t-165 244.5t-60.5 300zM502 723q0 -219 200 -219q100 0 179 90v-76h123v594h-123v-426q-74 -96 -162 -96q-29 0 -42 8t-28 25 q-25 31 -24 104v385h-123v-389zM1067 289h123v274q61 -59 162 -59q109 0 180 84q72 88 72 231q0 141 -64 223q-66 84 -180 84q-100 0 -170 -86v72h-123v-823zM1174 659v283q70 100 155 100q63 0 101 -55q39 -61 38 -168q0 -115 -41 -174q-20 -29 -43.5 -44t-58.5 -15 q-83 -1 -151 73z" />
<glyph unicode="H" horiz-adv-x="2050" d="M254 770q0 160 60.5 300t165 245.5t244.5 166t300 60.5t300 -60.5t244.5 -166t165 -245.5t60.5 -300t-60.5 -300t-165 -244.5t-244.5 -165t-300 -60.5t-300 60.5t-244.5 165t-165 244.5t-60.5 300zM543 1243l375 -594v-430h204v430l377 594h-237l-236 -405l-242 405h-241 z" />
<glyph unicode="I" horiz-adv-x="2050" d="M258 770q0 160 60.5 300t165 245.5t244.5 166t300 60.5t300 -60.5t245.5 -166t166 -245.5t60.5 -300t-60.5 -300t-166 -244.5t-245.5 -165t-300 -60.5t-300 60.5t-244.5 165t-165 244.5t-60.5 300zM535 555q0 -45 1 -90t1 -84v-64q0 -51 22.5 -65t38.5 -14h276 q-20 25 -20 51q0 16 5 28.5t13 22.5h-16q-35 0 -58.5 23.5t-23.5 56.5t23 55q-27 8 -43.5 28.5t-16.5 47.5q0 29 16.5 49.5t43.5 28.5q-20 20 -21 53q0 35 21.5 57.5t54.5 24.5q2 27 2 58v73q0 35 -24.5 68.5t-56.5 55t-64.5 23.5t-46.5 -28q-6 -10 -3 -33l10 -49 q5 -27 9 -54.5t0 -48.5q-4 -20 -27.5 -35.5t-49.5 -35t-46 -48t-20 -75.5v-80zM766 551q0 -23 15.5 -38t37.5 -15h238q23 0 38 15t15 38t-15.5 39t-37.5 16h-238q-23 0 -38 -16t-15 -39zM803 420q0 -23 15.5 -38t37.5 -15h199q23 0 38 15t15 38t-15.5 39t-37.5 16h-199 q-23 0 -38 -16t-15 -39zM803 682q0 -23 15.5 -38t37.5 -15h129q23 0 38 15t15 38t-15 39t-38 16h-129q-23 0 -38 -16t-15 -39zM883 289q0 -23 15 -38t38 -15h76q23 0 38 15t15 38t-15.5 39t-37.5 16h-76q-23 0 -38 -16t-15 -39zM952 958q0 -23 16.5 -38t39.5 -15h235 q23 0 39 15.5t16 37.5q0 23 -16 38.5t-39 15.5h-235q-23 0 -39.5 -15.5t-16.5 -38.5zM954 1090q0 -23 16.5 -39.5t39.5 -16.5h196q23 0 39.5 16.5t16.5 39.5t-16.5 38t-39.5 15h-196q-23 0 -39.5 -15t-16.5 -38zM997 1221q0 -23 16.5 -39.5t39.5 -16.5h73q23 0 39.5 16.5 t16.5 39.5t-16.5 38t-39.5 15h-73q-23 0 -39.5 -15t-16.5 -38zM1024 827q0 -23 16.5 -38t38.5 -15h127q23 0 39.5 15.5t16.5 37.5q0 23 -16.5 38.5t-39.5 15.5h-127q-23 0 -39 -15.5t-16 -38.5zM1188 1272q20 -25 20 -51q0 -31 -18 -52h16q35 0 58.5 -22.5t23.5 -56.5 q0 -31 -20 -56q25 -6 41 -26.5t16 -49.5t-16.5 -49t-40.5 -28q20 -25 20 -54q0 -33 -22.5 -56t-55.5 -23q0 -29 -1 -61t-1 -73q0 -35 24.5 -68.5t57.5 -55t65 -23.5h4q29 0 42 29q6 10 2 32l-9 51q-5 28 -8.5 55.5t0.5 47.5t27 34.5t48.5 34t46 48t20.5 78.5v78 q0 44 -1 89.5t-1 83.5v64q0 51 -22.5 65.5t-37.5 14.5h-278z" />
<glyph unicode="J" horiz-adv-x="2045" d="M254 770q0 160 60.5 300t165 245.5t244.5 166t300 60.5t300 -60.5t244.5 -166t165 -245.5t60.5 -300t-60.5 -300t-165 -244.5t-244.5 -165t-300 -60.5t-300 60.5t-244.5 165t-165 244.5t-60.5 300zM639 401h444v213v154q0 2 -1 3t-1 3q0 27 9.5 47.5t25.5 36.5 q31 29 76 29q43 0 78 -29q35 -35 35 -88v-49q0 -16 -10.5 -26.5t-24.5 -10.5q-16 0 -26.5 10.5t-10.5 26.5v49q0 27 -12.5 36t-28.5 11q-16 -2 -26.5 -10t-12.5 -33v-2q2 -35 2 -76v-82q0 -68 -1 -128t-1 -85h266v781h-780v-781z" />
<glyph unicode="K" d="M254 770q0 160 60.5 300t165 245.5t244.5 166t300 60.5t300 -60.5t244.5 -166t165 -245.5t60.5 -300t-60.5 -300t-165 -244.5t-244.5 -165t-300 -60.5t-300 60.5t-244.5 165t-165 244.5t-60.5 300zM410 772q0 -127 48 -239.5t131 -195.5t195.5 -131t239.5 -48t239.5 48 t195.5 131t131 195.5t48 239.5t-48 239.5t-131 195.5t-195.5 131t-239.5 48t-239.5 -48t-195.5 -131t-131 -195.5t-48 -239.5zM514 772q0 106 40 198.5t108.5 162t162 109.5t199.5 40t198.5 -40t162 -109.5t109.5 -161.5t40 -199q0 -106 -40 -199.5t-109.5 -162t-162 -108.5 t-198.5 -40t-199.5 40t-162 108.5t-108.5 162t-40 199.5zM592 666q31 -121 118 -209t210 -117v125q-72 25 -125.5 77t-77.5 124h-125zM592 877h125q25 72 78 125t125 77v125q-123 -31 -210 -117.5t-118 -209.5zM766 772q0 -53 20.5 -100t55.5 -82t82 -55.5t100 -20.5 t100 20.5t82 55.5t55.5 82t20.5 100t-20.5 100.5t-55.5 82t-82 55t-100 20.5t-100 -20.5t-82 -55t-55.5 -82t-20.5 -100.5zM852 770q0 68 50 117t120 49t120 -49t50 -117t-50 -117t-120 -49t-120 49t-50 117zM1130 340q121 29 209 117t117 209h-125q-25 -72 -77 -124.5 t-124 -76.5v-125zM1130 1077q72 -23 124.5 -76t76.5 -124h125q-29 123 -117 210t-209 117v-127z" />
<glyph unicode="L" horiz-adv-x="2050" d="M254 770q0 160 60.5 300t165 245.5t244.5 166t300 60.5t300 -60.5t244.5 -166t165 -245.5t60.5 -300t-60.5 -300t-165 -244.5t-244.5 -165t-300 -60.5t-300 60.5t-244.5 165t-165 244.5t-60.5 300zM561 244h926v270q0 39 -15.5 74t-41 60.5t-60.5 39.5t-74 14h-546 q-39 0 -73 -14t-59.5 -39.5t-41 -60.5t-15.5 -74v-270zM768 993q0 -53 20.5 -99t55.5 -81t81 -55.5t99 -20.5t99 20.5t81 55.5t55.5 81t20.5 99t-20.5 99.5t-55.5 81t-81 55t-99 20.5t-99 -20.5t-81 -55t-55.5 -81t-20.5 -99.5z" />
<glyph unicode="M" horiz-adv-x="2050" d="M254 770q0 160 60.5 300t165 245.5t244.5 166t300 60.5t300 -60.5t244.5 -166t165 -245.5t60.5 -300t-60.5 -300t-165 -244.5t-244.5 -165t-300 -60.5t-300 60.5t-244.5 165t-165 244.5t-60.5 300zM489 463q98 35 173 35q63 0 109 -20.5t85 -43.5q8 31 23 78l28 96l27 92 l18 66l-18 11l-19 11q-74 37 -143 37h-18q-43 -4 -80 -13t-64 -19q-12 -4 -26 -11zM614 897q98 39 179 39q59 -2 104 -20.5t82 -43.5l96 328q-16 10 -50 26.5t-62 24.5q-18 4 -38 6.5t-40 2.5q-41 -2 -85 -11.5t-93 -29.5zM942 383q10 -6 31.5 -17.5t48.5 -21.5t55.5 -18.5 t55.5 -8.5q88 0 196 45l90 312q-92 -31 -172 -31q-76 0 -127 20.5t-86 43.5zM1065 813q98 -63 205 -63q88 0 180 43v2h4l92 317q-92 -37 -176 -37q-72 0 -124 20.5t-87 45.5z" />
<glyph unicode="N" d="M254 770q0 160 60.5 300t165 245.5t244.5 166t300 60.5t300 -60.5t244.5 -166t165 -245.5t60.5 -300t-60.5 -300t-165 -244.5t-244.5 -165t-300 -60.5t-300 60.5t-244.5 165t-165 244.5t-60.5 300zM495 1124q9 -37 34.5 -85t63.5 -104t83 -116q49 -61 94 -100l25 -20 l22 -17q4 -12 4 -16q10 -29 22.5 -53.5t26.5 -41.5q18 -25 45 -55.5t58 -56.5q27 -23 53.5 -37t52.5 -10q14 2 23.5 23.5t15.5 49t8 56t2 47.5q12 -16 24.5 -28.5t25.5 -20.5q41 -29 70.5 -46.5t53 -21.5t45 6t46.5 37q23 25 44 61.5t35.5 80.5t17.5 92q1 9 1 18 q0 37 -10 74q27 59 39 125.5t16 124.5q1 15 1 29q0 64 -15 112q12 -35 18 -77q4 -25 4 -51q0 -17 -2 -34q-4 -57 -16.5 -124.5t-38.5 -127.5q10 -34 10 -71q0 -9 -1 -19q-3 -47 -17.5 -91t-35 -81t-42.5 -61q-25 -27 -46.5 -38.5t-45 -7t-53 21.5t-70.5 46 q-14 10 -26.5 22.5t-24.5 28.5q0 -18 -2.5 -48t-7.5 -57.5t-14 -48t-24 -22.5q-27 -4 -54 10.5t-54 36.5q35 -41 78 -73q36 -28 71 -28q7 0 13 1q14 2 23.5 23.5t15.5 49t8 56.5t0 47q25 -33 51 -51q41 -29 70.5 -46.5t53 -21.5t45.5 7.5t46 37.5q23 25 43.5 62t34.5 81 t17 91q1 9 1 18q0 37 -10 72h2q27 59 38 125.5t15 126.5q1 13 1 25q0 66 -18 124q-22 70 -69 99q-6 14 -12 24q-23 39 -58 57q-23 11 -50 10q-16 0 -33 -3q-43 -10 -98.5 -44t-107.5 -82t-95 -106.5t-64 -115.5q-23 29 -35 24q-12 -6 -12 -39q-31 29 -63 51l-68 45 q-39 25 -89 50.5t-97 42t-83 20.5t-48 -16q-5 -11 -6 -26q1 -15 5 -32zM1503 1268q2 -2 3 -2t3 -2q4 -8 6.5 -15.5t6.5 -17.5q-4 10 -8.5 19.5t-10.5 17.5zM1503 1268q2 -2 3 -2t3 -2q4 -8 6.5 -15.5t6.5 -17.5q-4 10 -8.5 19.5t-10.5 17.5z" />
<glyph unicode="O" horiz-adv-x="2050" d="M254 770q0 160 60.5 300t165 245.5t244.5 166t300 60.5t300 -60.5t244.5 -166t165 -245.5t60.5 -300t-60.5 -300t-165 -244.5t-244.5 -165t-300 -60.5t-300 60.5t-244.5 165t-165 244.5t-60.5 300zM709 625q0 -72 27.5 -136.5t74.5 -111.5t110.5 -75t135.5 -28t135 28 t111.5 75t76 111.5t27.5 136.5t-27.5 135t-76 110.5t-112 75t-134.5 27.5h-99v-199h99q63 0 106 -44t43 -105q0 -63 -43 -106.5t-106 -43.5q-61 0 -105.5 43t-44.5 107v698h-198v-698z" />
<glyph unicode="P" horiz-adv-x="2050" d="M258 770q0 160 60.5 300t165 245.5t244.5 166t300 60.5t300 -60.5t245.5 -166t166 -245.5t60.5 -300t-60.5 -300t-166 -244.5t-245.5 -165t-300 -60.5t-300 60.5t-244.5 165t-165 244.5t-60.5 300zM465 926h84q2 0 2 -2v-2v-537h-82v-121h309v121h-84v129 q23 -20 57.5 -36.5t86.5 -16.5q115 0 187.5 83t72.5 216q0 135 -70 216t-184 81q-59 0 -98 -19.5t-62 -42.5q-4 16 -22.5 32.5t-59.5 16.5h-137v-118zM692 758q0 86 41 131q23 23 47.5 31t42.5 8q57 0 92 -45q39 -49 39 -125t-36.5 -122t-96.5 -46q-37 0 -59.5 16.5 t-34.5 34.5q-35 45 -35 117zM1145 926h88v-332h-82v-121h322v121h-99v332h129v118h-129v9q0 84 80 84q8 0 14.5 -1t10.5 -1q6 -2 8 -2l24 -5v127l-16 2q-2 0 -15.5 1.5t-35.5 1.5q-27 0 -61.5 -6.5t-69.5 -28.5q-80 -53 -80 -174v-7h-88v-118z" />
<glyph unicode="Q" horiz-adv-x="2050" d="M258 770q0 160 60.5 300t165 245.5t244.5 166t300 60.5t300 -60.5t245.5 -166t166 -245.5t60.5 -300t-60.5 -300t-166 -244.5t-245.5 -165t-300 -60.5t-300 60.5t-244.5 165t-165 244.5t-60.5 300zM715 1198l4 -108q2 -55 2 -123v-789h16h117v393l4 7h10l2 -5 q33 -53 90.5 -81.5t129.5 -28.5q61 0 120.5 22.5t105.5 70.5t74.5 121t28.5 173q0 80 -22.5 147.5t-63.5 115.5t-96 74.5t-123 26.5q-174 0 -256 -137l-4 -4h-12l-6 125h-121zM879 750v28v115q0 20 8 47q16 68 67.5 110t118.5 42q88 0 144.5 -69t56.5 -179 q0 -119 -55.5 -189.5t-151.5 -70.5q-66 0 -116 39t-68 104q-4 11 -4 23z" />
<glyph unicode="R" horiz-adv-x="2050" d="M258 770q0 160 60.5 300t165 245.5t244.5 166t300 60.5t300 -60.5t245.5 -166t166 -245.5t60.5 -300t-60.5 -300t-166 -244.5t-245.5 -165t-300 -60.5t-300 60.5t-244.5 165t-165 244.5t-60.5 300zM385 930l84 -494h201l61 473h2l62 -473h200l111 643l-176 -32l-41 -394 h-2l-56 375l-86 -22l-68 -19l-50 -12l-43 -322h-2l-35 301q-74 -16 -162 -24zM1159 436h184v283h48q10 0 16 -1t12 -3q10 -6 19 -17q6 -8 10 -30q2 -10 3 -22.5t1 -27.5v-49v-26q0 -10 1 -18.5t1 -18.5q2 -10 2 -18.5t2 -18.5q4 -10 5 -18.5t5 -14.5h195v10q-10 4 -12 11 q-2 4 -9 10q-2 4 -2 8t-2 8q-2 6 -2 12.5t-2 12.5v29v28v60q0 72 -24 112q-27 43 -90 45v2q63 12 90 54q29 43 28 114q0 47 -10 76q-10 37 -33 59q-12 12 -26.5 22.5t-32.5 16.5q-18 8 -43 14q-14 3 -27 3q-10 0 -20 -2q-53 -6 -104.5 -15.5l-92.5 -17.5q-49 -10 -90 -21 v-651zM1343 842v166h35q41 0 60 -19q18 -18 18 -63q0 -39 -18 -60q-18 -25 -58 -24h-37z" />
<glyph unicode="S" horiz-adv-x="2050" d="M254 770q0 160 60.5 300t165 245.5t244.5 166t300 60.5q92 0 177 -20.5t163 -59.5v-856q0 -31 -21.5 -53.5t-54.5 -22.5h-35q-31 0 -52 22.5t-21 53.5v266q0 45 -17.5 84t-46.5 68t-67.5 46t-83.5 17h-291q-43 0 -82 -16t-68.5 -45t-46 -66.5t-16.5 -80.5 q0 -86 61.5 -148.5t149.5 -66.5l43 -5q31 -2 53.5 -20t19.5 -45q0 -27 -23.5 -45.5t-55.5 -18.5h-418q-37 113 -37 240zM352 391q49 -88 120 -159.5t158 -123t186 -80t208 -28.5q160 0 300 60.5t244.5 165t165 244.5t60.5 300q0 186 -78 342t-213 262v-768q0 -45 -17.5 -84 t-46 -68.5t-67.5 -46t-84 -16.5h-35q-43 0 -81.5 16.5t-68.5 46t-46.5 68.5t-16.5 84v266q0 31 -21.5 54.5t-51.5 23.5h-291q-31 0 -53.5 -21.5t-22.5 -49.5q0 -29 22.5 -52.5t55.5 -25.5l45 -2q43 -2 82 -19.5t66.5 -46t42.5 -65.5q14 -33 14 -69q0 -87 -67 -149 q-62 -58 -152 -59h-357z" />
<glyph unicode="T" horiz-adv-x="2050" d="M254 770q0 160 60.5 300t165 245.5t244.5 166t300 60.5q31 0 59.5 -3t57.5 -7q-98 -8 -183.5 -43t-150 -92.5t-105 -131t-47.5 -157.5v-6v-4q-2 -2 -2 -8v-3v-10v-2v-10v-10h2q4 -86 42 -160t102 -131l-27 -272l250 151q80 -25 168 -25q111 0 209 36t172 98.5t116 145.5 t42 179v8q66 -147 65 -315q0 -160 -60.5 -300t-165 -244.5t-244.5 -165t-300 -60.5t-300 60.5t-244.5 165t-165 244.5t-60.5 300zM844 1077q0 53 27.5 101.5t74.5 84t109.5 56t134.5 20.5q70 0 132 -20.5t109.5 -56t75 -84t27.5 -101.5t-27.5 -101t-75 -84t-109.5 -57.5 t-132 -21.5q-72 0 -134.5 21.5t-109.5 57.5t-74.5 84t-27.5 101z" />
<glyph unicode="U" horiz-adv-x="2050" d="M258 770q0 160 60.5 300t165 245.5t244.5 166t300 60.5t300 -60.5t245.5 -166t166 -245.5t60.5 -300t-60.5 -300t-166 -244.5t-245.5 -165t-300 -60.5t-300 60.5t-244.5 165t-165 244.5t-60.5 300zM559 1153l150 -870h249l74 403h4l76 -403h248l149 870h-221l-59 -434h-2 l-90 434h-205l-82 -434h-2l-68 434h-221z" />
<glyph unicode="V" horiz-adv-x="2045" d="M254 770q0 160 60.5 300t165 245.5t244.5 166t300 60.5t300 -60.5t244.5 -166t165 -245.5t60.5 -300t-60.5 -300t-165 -244.5t-244.5 -165t-300 -60.5t-300 60.5t-244.5 165t-165 244.5t-60.5 300zM545 961l39 -52q23 18 43 29q16 10 34.5 12t28.5 -8q6 -8 19.5 -42 t28.5 -82l32 -103l33 -107l30 -92q13 -41 21 -57q10 -23 30.5 -47.5t47 -40t57.5 -18.5h8q27 0 58 20q33 23 99.5 79t136 137t128 183t78.5 215q4 28 5 51q0 41 -14 70q-22 45 -63 64q-31 15 -68 15q-12 0 -25 -1q-52 -6 -101 -34t-88 -76t-49 -113q36 22 64 21h7 q31 -3 47.5 -23.5t15.5 -55.5t-22 -74q-41 -78 -76.5 -125t-56.5 -47q-20 0 -37.5 50.5t-40.5 142.5q-12 47 -21 107.5t-24.5 112.5t-42.5 85q-20 25 -53 25q-10 0 -23 -2q-47 -10 -98 -45t-92 -74q-51 -45 -96 -100z" />
<glyph unicode="W" horiz-adv-x="2050" d="M258 770q0 160 60.5 300t165 245.5t244.5 166t300 60.5t300 -60.5t245.5 -166t166 -245.5t60.5 -300t-60.5 -300t-166 -244.5t-245.5 -165t-300 -60.5t-300 60.5t-244.5 165t-165 244.5t-60.5 300zM506 864l262 -553l782 367l-262 553l-188 -88l217 -467l-105 -49 l-219 467l-190 -90l219 -467l-107 -50l-219 467z" />
<glyph unicode="X" horiz-adv-x="2050" d="M258 770q0 160 60.5 300t165 245.5t244.5 166t300 60.5t300 -60.5t245.5 -166t166 -245.5t60.5 -300t-60.5 -300t-166 -244.5t-245.5 -165t-300 -60.5t-300 60.5t-244.5 165t-165 244.5t-60.5 300zM516 432h705v625h-217v-219h-271v219h-217v-408h488v-53h-488v-164z M1329 432h217v164h-217v-164zM1329 649h217v408h-217v-408z" />
<glyph unicode="Y" horiz-adv-x="2045" d="M272 770q0 160 60.5 300t165 245.5t245 166t299.5 60.5q119 0 227.5 -34.5t201 -96t164 -147.5t116.5 -189q-16 8 -43 8q-147 6 -303 7q-156 0 -303 -7q-53 0 -90 -35.5t-37 -89.5q-4 -41 -4 -80v-81v-82q0 -41 4 -82q0 -51 37 -87t90 -36q147 -6 303 -6t303 6 q37 0 68 18q-39 -115 -110 -212t-167 -167.5t-212 -109.5t-245 -39q-160 0 -300 60.5t-244.5 165t-165 244.5t-60.5 300zM377 993l72 -231v-154h59v160l70 225h-62l-37 -153h-4l-39 153h-59zM573 680q0 -33 21 -57q20 -20 55 -21q37 0 58 21q20 20 20 57v145q0 35 -20 54 q-20 20 -54 20q-37 0 -57 -18q-23 -18 -23 -54v-147zM629 676v153q0 10 6 17q8 4 14 4q10 0 19 -4q6 -6 6 -17v-153q0 -12 -6 -19q-6 -6 -19 -6q-12 0 -14 6q-6 7 -6 19zM772 655q0 -25 8 -39q12 -12 29 -12q14 0 31 10q16 10 30 27v-33h54v285h-54v-215l-8 -8l-8 -8 q-10 -6 -14 -7q-10 0 -13 7q-2 2 -2 14v217h-53v-238zM1038 938v59h183v-59h-62v-328h-59v328h-62zM1219 655v242h53v-217q0 -10 4 -14q2 -4 10 -4q2 0 14 4q10 6 17 16v215h53v-287h-53v31q-14 -16 -31 -27q-14 -8 -31 -8q-18 0 -26 12q-10 14 -10 37zM1421 610v387h54 v-123q14 14 22 21q12 6 25 6q23 0 39 -18q12 -18 12 -54v-161q0 -31 -12 -45q-10 -16 -35 -17q-16 0 -29 6q-14 6 -22 19v-21h-54zM1475 668q8 -8 12 -11q4 -2 12 -2q10 0 14 4q6 6 7 21v143q0 14 -7 21q-6 8 -16 8q-4 0 -6 -1t-6 -1l-10 -10v-172zM1614 690v131q0 39 20 60 q25 25 60 24q37 0 55 -22q18 -23 18 -62v-76h-100v-51q0 -23 6 -30q2 -8 17 -9q16 0 18 9q6 6 6 30v21h53v-25q0 -45 -18 -65q-20 -23 -59 -23q-35 0 -58 23q-18 24 -18 65zM1667 793h47v24q0 16 -6 27q-6 6 -16 6q-12 0 -19 -6q-6 -10 -6 -27v-24z" />
<glyph unicode="Z" horiz-adv-x="2050" d="M258 770q0 160 60.5 300t165 245.5t244.5 166t300 60.5t300 -60.5t245.5 -166t166 -245.5t60.5 -300t-60.5 -300t-166 -244.5t-245.5 -165t-300 -60.5t-300 60.5t-244.5 165t-165 244.5t-60.5 300zM674 782q0 -72 29.5 -136t80 -111.5t118 -75t145.5 -27.5 q125 0 221 67.5t133 172.5h-178q-29 -43 -74 -70t-102 -27q-43 0 -81 16.5t-66 44.5t-44 65.5t-16 80.5q0 57 26.5 102.5t69.5 73.5v160q-57 -16 -105.5 -49t-83 -77t-54 -97.5t-19.5 -112.5zM973 782q0 -31 21.5 -52t52.5 -21t53 21.5t22 51.5q0 31 -22.5 53.5t-52.5 22.5 q-31 0 -52.5 -22.5t-21.5 -53.5zM973 1323q0 -16 12 -28.5t31 -8.5h31q104 0 196 -40t159.5 -107.5t107.5 -159.5t40 -197v-30q-4 -18 8.5 -30.5t28.5 -12.5h88q16 0 30.5 12t16.5 31v30q0 139 -53 262t-145 215.5t-215 145.5t-262 53h-31q-18 -2 -30.5 -16.5t-12.5 -30.5 v-88zM1001 1022q0 -16 12.5 -25.5t28.5 -5.5h5q43 0 80.5 -16.5t66.5 -45t45 -66.5t16 -81v-12q0 2 2 8q-4 -16 5.5 -28.5t25.5 -12.5h84q18 0 32.5 12.5t18.5 30.5l-4 -28v30q0 74 -28.5 137.5t-79.5 111.5t-119 76t-145 28h-3q-18 -2 -30.5 -16.5t-12.5 -33.5v-63z" />
<glyph unicode="[" d="M254 770q0 160 60.5 300t165 245.5t244.5 166t300 60.5t300 -60.5t244.5 -166t165 -245.5t60.5 -300t-60.5 -300t-165 -244.5t-244.5 -165t-300 -60.5t-300 60.5t-244.5 165t-165 244.5t-60.5 300zM575 643h314v-313h266v313h313v266h-313v314h-266v-314h-314v-266z" />
<glyph unicode="]" d="M254 770q0 160 60.5 300t165 245.5t244.5 166t300 60.5t300 -60.5t244.5 -166t165 -245.5t60.5 -300t-60.5 -300t-165 -244.5t-244.5 -165t-300 -60.5t-300 60.5t-244.5 165t-165 244.5t-60.5 300zM434 526l291 92q78 -33 164 -32q68 0 135 22q4 -94 64.5 -162.5 t150.5 -89.5l123 -157l61 182q66 35 107 99.5t41 142.5q0 57 -21.5 107t-58.5 87t-87 58.5t-108 21.5h-8q10 51 10 98q0 86 -31.5 161t-87 130t-130 87t-160.5 32t-161 -32t-130 -87t-87 -130t-32 -161q0 -82 33 -164zM578 666l59 223q-8 23 -13.5 47.5t-5.5 50.5 q0 57 22 107.5t59.5 88.5t88 59.5t107.5 21.5t107.5 -21.5t87 -59.5t58 -88.5t21.5 -107.5q0 -84 -45 -151q-10 -16 -24.5 -32t-30.5 -30q-74 -61 -174 -61q-63 0 -125 28zM1155 627q0 39 21 75l16 19.5t18 17.5q41 31 86 31q59 0 101.5 -42t42.5 -101q0 -41 -20.5 -74 t-53.5 -51l-39 -107l-55 92q-51 10 -84 48.5t-33 91.5z" />
<glyph unicode="^" d="M254 770q0 160 60.5 300t165 245.5t244.5 166t300 60.5t300 -60.5t244.5 -166t165 -245.5t60.5 -300t-60.5 -300t-165 -244.5t-244.5 -165t-300 -60.5t-300 60.5t-244.5 165t-165 244.5t-60.5 300zM707 403l716 359l-716 358l178 -358z" />
<glyph unicode="_" d="M254 770q0 160 60.5 300t165 245.5t244.5 166t300 60.5t300 -60.5t244.5 -166t165 -245.5t60.5 -300t-60.5 -300t-165 -244.5t-244.5 -165t-300 -60.5t-300 60.5t-244.5 165t-165 244.5t-60.5 300zM643 606q0 -125 68 -188q68 -66 209 -66h423v901h-256v-383h-139 q-156 0 -231 -69q-74 -72 -74 -195zM891 612q0 41 31 66q27 27 102 27h63v-185h-73q-72 0 -96 27q-27 26 -27 65z" />
<glyph unicode="a" d="M254 770q0 160 60.5 300t165 245.5t244.5 166t300 60.5t300 -60.5t244.5 -166t165 -245.5t60.5 -300t-60.5 -300t-165 -244.5t-244.5 -165t-300 -60.5t-300 60.5t-244.5 165t-165 244.5t-60.5 300zM434 729q0 -123 46 -230.5t126 -187.5t187.5 -126t230.5 -46t230.5 46 t187.5 126t126 187.5t46 230.5v27q-139 -49 -286.5 -75t-303.5 -26t-303.5 26t-286.5 75v-27zM557 981q0 -63 45 -108.5t109 -45.5q66 0 109.5 45.5t43.5 108.5q0 66 -44 110t-109 44q-63 0 -108.5 -44t-45.5 -110zM1184 981q0 -63 44 -108.5t109 -45.5q63 0 108.5 45.5 t45.5 108.5q0 66 -45 110t-109 44q-66 0 -109.5 -44t-43.5 -110z" />
<glyph unicode="b" horiz-adv-x="2050" d="M258 770q0 160 60.5 300t165 245.5t244.5 166t300 60.5t300 -60.5t245.5 -166t166 -245.5t60.5 -300t-60.5 -300t-166 -244.5t-245.5 -165t-300 -60.5t-300 60.5t-244.5 165t-165 244.5t-60.5 300zM827 342l586 387l-586 387v-774z" />
<glyph unicode="c" d="M254 770q0 160 60.5 300t165 245.5t244.5 166t300 60.5t300 -60.5t244.5 -166t165 -245.5t60.5 -300t-60.5 -300t-165 -244.5t-244.5 -165t-300 -60.5t-300 60.5t-244.5 165t-165 244.5t-60.5 300zM569 655q0 -70 29 -137q29 -68 84 -117q55 -51 139 -86q94 -41 177 -40 q26 0 51 4q102 12 196 112l-172 72q-18 -25 -76 -35q-16 -3 -31 -3q-41 0 -81 19q-82 33 -111 91q-12 26 -12 58q0 38 16 87l512 -215q39 76 47 149q2 22 3 43q0 53 -15 105q-10 37 -28.5 69.5t-45.5 61.5q-29 33 -71 61q58 -11 104 -10h15q52 2 97.5 19.5t88.5 52.5t94 86 q-55 45 -117 57q-26 5 -53 5q-35 0 -71 -9q-62 -16 -122.5 -58t-113.5 -104q7 46 6 82v18q-2 42 -16.5 74.5t-42 61t-68.5 63.5q-32 -48 -32 -98q0 -24 7 -48q23 -75 95 -134q-27 8 -51.5 11t-51.5 5q-39 0 -73.5 -5t-69.5 -19q-72 -27 -121 -76q-51 -51 -82 -123 q-29 -74 -33 -150zM825 793q4 10 11.5 19t17.5 19q16 18 43 33q33 14 66 15h6q33 0 78 -19q72 -29 90 -78q12 -31 12 -68q0 -26 -6 -55z" />
<glyph unicode="d" horiz-adv-x="2045" d="M254 770q0 160 60.5 300t165 245.5t244.5 166t300 60.5t300 -60.5t244.5 -166t165 -245.5t60.5 -300t-60.5 -300t-165 -244.5t-244.5 -165t-300 -60.5t-300 60.5t-244.5 165t-165 244.5t-60.5 300zM786 791q0 -14 15 -15h180v-332h-74q-18 0 -30.5 -9t-12.5 -25v-129 q0 -16 12.5 -26.5t30.5 -10.5h232q18 0 31.5 10t13.5 27v129q0 35 -41 34h-72v332h176q14 0 15 15v313v2v2q0 35 -13.5 68.5t-42 60.5t-74 43t-108.5 16t-108.5 -17t-74 -43t-42 -59.5t-13.5 -68.5v-2v-2v-313z" />
<glyph unicode="e" d="M254 770q0 160 60.5 300t165 245.5t244.5 166t300 60.5t300 -60.5t244.5 -166t165 -245.5t60.5 -300t-60.5 -300t-165 -244.5t-244.5 -165t-300 -60.5t-300 60.5t-244.5 165t-165 244.5t-60.5 300zM492 864q0 -49 19 -93t52 -76.5t77 -52t95 -19.5q49 0 93 19.5t77 52 t52.5 76.5t19.5 93q0 51 -19.5 95.5t-52.5 77t-77 52t-93 19.5q-51 0 -95 -19.5t-77 -52t-52 -77t-19 -95.5zM825 487q0 -49 19.5 -93t52.5 -76.5t77 -52t93 -19.5q51 0 95 19.5t77 52t52.5 76.5t19.5 93q0 51 -19.5 95.5t-52.5 77t-77 52t-95 19.5q-49 0 -93 -19.5t-77 -52 t-52.5 -77t-19.5 -95.5zM991 967q0 -49 19.5 -94.5t52.5 -78t77 -52t93 -19.5q51 0 95 19.5t77 52t52.5 78t19.5 94.5q0 51 -19.5 95t-52.5 76.5t-77 52t-95 19.5q-49 0 -93 -19.5t-77 -52t-52.5 -76.5t-19.5 -95z" />
<glyph unicode="f" horiz-adv-x="2045" d="M254 770q0 160 60.5 300t165 245.5t244.5 166t300 60.5t300 -60.5t244.5 -166t165 -245.5t60.5 -300q0 -150 -53 -282t-145.5 -234t-218.5 -169t-271 -81v14v588h197l24 228h-217l2 167q0 43 8 54.5t60 11.5h147v219h-217q-57 0 -103 -19.5t-78 -52t-49.5 -73.5 t-17.5 -86v-221h-168v-228h164v-588q-129 29 -239.5 97.5t-191.5 168t-127 223.5t-46 263z" />
<glyph unicode="g" horiz-adv-x="2050" d="M254 770q0 111 28.5 212t82.5 189q14 -59 49 -106t86 -79t116 -46q42 -9 87 -9q26 0 53 3q6 -6 2 -17.5t-6 -19.5q-6 -22 -6 -43q0 -31 12 -60q20 -50 43 -79q-84 -4 -160 -16.5t-140.5 -36t-116.5 -60.5t-85 -92q-45 121 -45 260zM433 432q3 39 26 80q18 33 50 57.5 t74 42t91 27.5t98 14q23 2 47.5 5.5t46.5 -1.5q23 -6 47 -26l43 -35q27 -20 59 -49t54.5 -67t30.5 -84q2 -12 2 -25q0 -35 -17 -72q-29 -63 -100.5 -97t-157.5 -40l-38 -2q-67 0 -135 17q-87 22 -142 69q-23 18 -42 47t-30 64q-8 28 -8 57q0 9 1 18zM535 1366 q70 57 151.5 97t173.5 61q27 -27 52.5 -67t43 -87t25.5 -99q5 -35 5 -69q0 -17 -1 -35q-4 -43 -23.5 -79.5t-52 -61.5t-75.5 -34q-18 -4 -39 -4q-27 0 -56 7q-41 10 -78.5 47t-66.5 89.5t-46 113.5q-14 50 -14 98q0 12 1 23zM698 72h4h5q111 4 206 29.5t168 80.5 q61 47 105.5 110.5t50.5 145.5q1 15 1 30q0 32 -6 59q-9 40 -25.5 73t-39 59.5t-45.5 47.5q-20 18 -52 38.5t-61.5 44t-51 50t-21.5 61.5q0 39 28 65l60 54q29 25 55.5 54.5t47 65.5t31.5 78q10 36 10 79q0 8 -1 16q-4 74 -36.5 129t-73.5 98q154 -6 288 -68.5t234 -167 t157.5 -241.5t57.5 -293q0 -160 -60.5 -300t-165 -244.5t-244.5 -165t-300 -60.5q-88 0 -170 18.5t-156 53.5z" />
<glyph unicode="h" horiz-adv-x="2050" d="M254 770q0 160 60.5 300t165 245.5t244.5 166t300 60.5t300 -60.5t244.5 -166t165 -245.5t60.5 -300t-60.5 -300t-165 -244.5t-244.5 -165t-300 -60.5t-300 60.5t-244.5 165t-165 244.5t-60.5 300zM641 1094q16 -41 49 -56q10 -4 24.5 -5t20.5 -9q4 -6 4 -31v-45 q0 -68 2 -121t4 -118q0 -55 2.5 -117t8.5 -115q4 -18 5 -41.5t-5 -32.5q-2 -4 -10.5 -5t-12.5 -3q-16 -4 -33.5 -14t-19.5 -27q-2 -20 17.5 -41.5t39.5 -25.5q12 -4 21.5 -4t25.5 2q20 2 51 6t60 12t50.5 21.5t23.5 31.5q4 23 -12.5 41.5t-30.5 24.5q-6 2 -24.5 0t-24.5 8 q-4 8 -2 23.5t-1 25.5q0 10 -2 26.5t-3 34t0 32t5 20.5q10 14 35 20t39 11q45 16 81 21t89 15q6 0 20.5 2.5t31 3.5t28.5 0t16 -6q2 -4 3 -20v-27q0 -16 -1.5 -27.5t1.5 -23.5q0 -23 4 -52.5t-7 -39.5q-8 -6 -22 -6t-25 -4q-29 -14 -30 -31q-2 -12 5 -25.5t19.5 -25.5 t25.5 -20.5t25 -8.5q10 -1 21 -1q31 0 65 9q45 12 74 27l27 9q14 5 18 11q7 11 7 23q0 13 -8 28q-15 28 -34 33q-8 2 -22 1t-19 6q-6 4 -5 30.5t1 42.5v400q0 37 -2 83v11q0 37 13 53q4 6 14 10l21.5 8.5t20.5 10.5t11 12q2 10 -2 26.5t-11 31t-17.5 24.5t-18.5 10h-66 q-41 -8 -77.5 -13t-71.5 -24q-10 -4 -19.5 -10t-13.5 -16q-10 -33 10.5 -54.5t42.5 -31.5q6 -2 21.5 -4t21.5 -7q8 -10 6.5 -34.5t-3.5 -40.5q-5 -53 -6 -86q0 -31 6 -70q2 -14 5 -37.5t-10 -34.5q-10 -6 -39.5 -7t-46.5 -3q-31 -4 -56 -8l-49 -8q-24 -4 -48.5 -10.5 t-52.5 -12.5q-8 0 -20.5 -4t-22.5 0q-4 4 -7.5 22.5t-3.5 26.5q-2 30 -2 56t2 49q4 45 4 102v38q0 19 4 24q4 8 16 11l23 6q12 3 23.5 7t15.5 14q6 10 5 23.5t-5 24.5q-8 25 -26.5 36t-42 13t-52 -2t-59.5 -11q-43 -8 -79 -18t-52 -41v-18z" />
<glyph unicode="i" horiz-adv-x="2050" d="M254 770q0 160 60.5 300t165 245.5t244.5 166t300 60.5t300 -60.5t244.5 -166t165 -245.5t60.5 -300t-60.5 -300t-165 -244.5t-244.5 -165t-300 -60.5t-300 60.5t-244.5 165t-165 244.5t-60.5 300zM567 1120q0 -53 36 -89t87 -36q53 0 89 36t36 89q0 51 -36 87t-89 36 q-51 0 -87 -36t-36 -87zM592 227h199v695h-199v-695zM889 227h198v445q6 8 15 16q8 6 22.5 14.5t36.5 14.5q35 10 57.5 8t38.5 -12q10 -4 19.5 -20.5t9.5 -43.5v-422h199v422q0 68 -38 133.5t-97 98.5q-56 32 -128 31h-4q-75 -1 -131 -42v52h-198v-695z" />
<glyph unicode="j" horiz-adv-x="2050" d="M254 770q0 160 60.5 300t165 245.5t244.5 166t300 60.5t300 -60.5t244.5 -166t165 -245.5t60.5 -300t-60.5 -300t-165 -244.5t-244.5 -165t-300 -60.5t-300 60.5t-244.5 165t-165 244.5t-60.5 300zM557 479q0 -25 18 -39q16 -16 56 -16h368q41 0 58 16q18 14 18 39 t-18 41q-14 14 -58 15h-110v114h452q66 0 109 17q37 14 80 47q39 29 55 63q23 39 23 92q0 90 -66 150q-66 61 -178 61h-733q-41 0 -56 -14q-18 -16 -18 -41q0 -27 18 -41q14 -14 56 -14h147v-434h-147q-41 0 -56 -15q-18 -16 -18 -41zM889 760v209h477q61 0 96 -29t35 -70 q0 -45 -43 -77q-39 -33 -115 -33h-450z" />
<glyph unicode="k" d="M254 770q0 160 60.5 300t165 245.5t244.5 166t300 60.5t300 -60.5t244.5 -166t165 -245.5t60.5 -300t-60.5 -300t-165 -244.5t-244.5 -165t-300 -60.5t-300 60.5t-244.5 165t-165 244.5t-60.5 300zM342 516q20 -10 32.5 -19.5t24.5 -25.5q16 31 24.5 58.5t14.5 66.5 q4 20 6 50t2 50h56v-139q0 -10 -3 -14t-16 -4q-14 0 -39 6q8 -23 10.5 -36t4.5 -36h30q43 0 60 14q10 10 12 21.5t2 36.5v235l8 -8q12 -16 16.5 -22.5t12.5 -20.5q23 14 33 22.5l26 22.5h185l-25 -76h-119l11 33q2 2 2 3t2 3l4 8q2 6 3 7.5t3 5.5h-72l-8 -25l-18 -47 q0 -2 -4.5 -9t-8.5 -18q-4 -8 -6 -16q16 2 33 2h39h227q-4 -31 -9 -59.5t-9 -38.5q-4 -16 -29 -17q-14 2 -19 2t-24 3q-2 0 -35 8q6 -18 8.5 -29.5t6.5 -36.5q14 -2 20 -2h19q14 -2 17 -2h7q37 0 56.5 9.5t29.5 31.5q8 12 15.5 50t11.5 83q0 16 6 53q-16 -2 -25 -2h-28h-41 l26 88q12 -14 27 -25l39 -30l16 33q6 12 19 31q-63 31 -94 73h16h37q12 0 24 -4v60q-14 -2 -26.5 -3t-34.5 -1h-170l6 15q2 5 6 17h139h33q10 0 25 -2v58q-12 -2 -24.5 -3t-33.5 -1h-18q4 6 18.5 31.5t20.5 37.5l-66 27q-10 -27 -16 -38t-23 -38l41 -20h-81q0 6 2 8l12 63 l2 6q2 10 2 17l-70 10q0 -23 -5 -52l-9 -52h-47l39 24q-10 18 -21 31l-34 41l-52 -33q16 -18 24 -30l21 -33h-4q-20 0 -32.5 1t-24.5 3v-58q14 2 26 2h29h60q-4 -10 -7.5 -15t-7.5 -17h-55q-23 0 -32 1t-25 3v-58q14 2 24 2h33h20q-10 -14 -19 -24t-20.5 -19.5t-24.5 -18.5 l-32 -22v246q0 20 1 33.5t1 26.5q-14 -2 -24 -3h-31h-64h-31q-15 0 -30 3q4 -23 4 -49v-68q0 -113 -2 -186.5t-7 -124t-14.5 -83t-23.5 -63.5zM451 760q0 33 1 50t1 27v13v10h49v-100h-51zM453 924v98h49v-98h-49zM586 555q12 2 24 2h35h164h33q14 0 28 -2v61q-10 -4 -22 -4 h-39h-164h-33q-12 0 -26 4v-61zM709 825q10 12 15 20.5l13 22.5h113q20 -37 27 -43h-168zM1055 821q16 2 29.5 3t27.5 1h31v-227q-2 -23 -23 -35l33 -71q39 23 66 42l63 48v90l-39 -32l-31 -26v209v48q0 9 2 30q-12 -2 -21 -3t-26 -1h-53q-18 0 -30.5 1t-28.5 3v-80z M1094 1047q25 -16 53.5 -44t44.5 -49l55 58q-16 16 -43.5 39.5l-54.5 44.5zM1249 762q16 2 33 2h39h35v-201q0 -39 -1 -56.5t-3 -35.5h78q-2 23 -3.5 46.5t-1.5 43.5v4l2 199h25q10 0 27.5 -1t40.5 -1v74q-14 -2 -33 -3.5t-35 -1.5h-25v177h107v-117q0 -96 6 -174t16 -127 q12 -51 34 -81t44 -30q27 0 39 33q10 16 14.5 42t10.5 73q-18 14 -28.5 23t-20.5 24v-10l-2 -21q-4 -39 -9 -53q0 -2 -2 -4q-6 0 -11 25.5t-9 66.5t-7 91t-3 99q0 164 6 211q-12 -2 -26.5 -3t-43.5 -1h-209q-20 0 -38.5 1t-37.5 3v-75q14 4 28 4h40h31v-177h-33 q-20 0 -36.5 1.5l-37.5 3.5v-74z" />
<glyph unicode="l" horiz-adv-x="2045" d="M254 770q0 160 60.5 300t165 245.5t244.5 166t300 60.5t300 -60.5t244.5 -166t165 -245.5t60.5 -300t-60.5 -300t-165 -244.5t-244.5 -165t-300 -60.5t-300 60.5t-244.5 165t-165 244.5t-60.5 300zM430 770q0 -74 27.5 -138.5t76 -112.5t113 -75.5t137.5 -27.5 q84 0 155 35.5t118 95.5l-45 104q-33 -61 -93.5 -99t-134.5 -38q-53 0 -100 20.5t-82 55.5t-55.5 81t-20.5 99t20.5 100.5t55.5 82t82 55t100 20.5q78 0 142.5 -42t93.5 -112l113 -258l12 -28q35 -80 89 -123t146 -45q102 0 170 58.5t68 148.5q0 86 -44 129t-136 71 q-35 12 -62.5 20.5t-49 21t-33 28.5t-11.5 45q0 39 26.5 64.5t67.5 25.5q59 0 101 -55l75 37q-59 104 -172 104q-90 0 -140 -49t-50 -131t52 -124t157 -77q59 -18 91 -37.5t32 -68.5q0 -51 -41 -86q-37 -31 -93 -31h-14q-66 2 -94.5 36t-52.5 89l-39 89l-37 84l-28 64 q-11 26 -13 29q-45 106 -130 162.5t-196 56.5q-74 0 -138 -27.5t-112.5 -75.5t-76 -112.5t-27.5 -138.5z" />
<glyph unicode="m" horiz-adv-x="2045" d="M254 770q0 160 60.5 300t165 245.5t244.5 166t300 60.5t300 -60.5t244.5 -166t165 -245.5t60.5 -300q0 -201 -93 -369t-249 -272v438q0 84 -58.5 142.5t-144.5 58.5q-41 0 -76.5 -15.5t-64.5 -41.5q-12 47 -52 78.5t-93 31.5q-72 0 -115 -53q-10 35 -38 57.5t-65 22.5 q-43 0 -73.5 -31t-30.5 -76v-196h172v-156h236v-389h-25q-160 0 -300 60.5t-244.5 165t-165 244.5t-60.5 300zM659 973q0 -35 26 -60.5t60 -25.5q37 0 61.5 25.5t24.5 60.5q0 37 -24.5 62.5t-61.5 25.5q-35 0 -60.5 -25.5t-25.5 -62.5zM850 973q0 -47 32.5 -80t80.5 -33 q47 0 80.5 33t33.5 80t-33.5 80.5t-80.5 33.5t-80 -33.5t-33 -80.5zM1102 973q0 -59 43 -103.5t104 -44.5t105.5 44t44.5 104q0 61 -44 105t-106 44q-61 0 -104 -44t-43 -105z" />
<glyph unicode="n" horiz-adv-x="2050" d="M258 770q0 160 60.5 300t165 245.5t244.5 166t300 60.5t300 -60.5t245.5 -166t166 -245.5t60.5 -300t-60.5 -300t-166 -244.5t-245.5 -165t-300 -60.5t-300 60.5t-244.5 165t-165 244.5t-60.5 300zM575 477q0 -47 18.5 -88t49.5 -71.5t72 -49t88 -18.5t88 18.5t71.5 49 t48 71.5t17.5 88q0 -47 18.5 -88t49 -71.5t71.5 -49t88 -18.5t88 18.5t72 49t49.5 71.5t18.5 88v707h-232v-664h-100v664h-244v-664h-100v664h-232v-707z" />
<glyph unicode="o" horiz-adv-x="2050" d="M254 770q0 160 60.5 300t165 245.5t244.5 166t300 60.5t300 -60.5t244.5 -166t165 -245.5t60.5 -300t-60.5 -300t-165 -244.5t-244.5 -165t-300 -60.5t-300 60.5t-244.5 165t-165 244.5t-60.5 300zM406 1038h157q14 -12 43 -41.5t62 -68.5l67 -81l64 -79q29 -37 48 -64.5 t21 -33.5q2 -10 3 -42t1 -66t-2 -61.5t-6 -31.5q-8 -10 -29.5 -13t-46 -5t-47.5 -2h-30l-9 -50h51h70q37 0 71 1t52 1h79h85h73h40l2 52q-8 2 -33 2t-52.5 1t-52 1t-30.5 2q-2 8 -3 41l-2 67q-1 35 -1 66t2 37q4 12 27.5 36.5t55 53t69.5 59.5t72 55l58 42q25 17 33 20 q6 2 27 6h86l14 21l35 47h-2l4 6h-469l18 -74h127l-213 -194q-16 23 -43 56l-56 73l-61 80q-32 42 -59 81h162v58l2 12h-2v4h-532v-74zM1434 403l34 -2l56 -4l10 78l-55 2l-45 6v-80zM1444 866l2 -331l94 -11l82 322q-6 0 -31.5 3t-56.5 6t-57.5 6t-32.5 5z" />
<glyph unicode="p" horiz-adv-x="2045" d="M254 770q0 160 60.5 300t165 245.5t244.5 166t300 60.5t300 -60.5t244.5 -166t165 -245.5t60.5 -300t-60.5 -300t-165 -244.5t-244.5 -165t-300 -60.5t-300 60.5t-244.5 165t-165 244.5t-60.5 300zM565 395h248l59 285h177q127 0 222 72.5t124 205.5q8 39 8 73 q0 31 -7 58q-15 54 -50 89.5t-82 53t-93 17.5h-419zM662 291h247l60 282h176q63 0 119.5 19.5t102.5 55.5t79 88t47 118q7 37 7 69q0 29 -6 54q-13 51 -42 88q14 -33 17 -74q1 -9 1 -19q0 -33 -8 -71q-29 -133 -124 -206.5t-222 -73.5h-176l-61 -283h-207zM907 842h80 l41 176h121q10 0 16 -2q-10 29 -31.5 45t-52.5 16h-120zM1028 842q47 4 86 36.5t49 79.5q2 4 2 6.5t2 6.5h-110z" />
<glyph unicode="q" horiz-adv-x="2050" d="M258 770q0 160 60.5 300t165 245.5t244.5 166t300 60.5t300 -60.5t245.5 -166t166 -245.5t60.5 -300t-60.5 -300t-166 -244.5t-245.5 -165t-300 -60.5t-300 60.5t-244.5 165t-165 244.5t-60.5 300zM750 205h213v424h114q78 0 140 20q63 18 104 58q43 35 70 98 q25 61 24 143q0 29 -4 58.5t-10 58.5q-14 55 -49 102q-18 23 -40 40.5t-50 31.5q-53 27 -138 27h-374v-1061zM963 786v322h90q80 0 114 -41q33 -39 33 -121q0 -84 -39 -121q-39 -39 -102 -39h-96z" />
<glyph unicode="r" horiz-adv-x="2045" d="M254 770q0 160 60.5 300t165 245.5t244.5 166t300 60.5t300 -60.5t244.5 -166t165 -245.5t60.5 -300t-60.5 -300t-165 -244.5t-244.5 -165t-300 -60.5t-300 60.5t-244.5 165t-165 244.5t-60.5 300zM596 475q0 -53 39 -92t92 -39q55 0 94 39t39 92t-39 92t-94 39 q-53 0 -92 -39t-39 -92zM596 805q92 0 176 -35t150 -100q66 -66 100.5 -150t34.5 -178h190q0 135 -51 254t-140 208t-207 140t-253 51v-190zM596 1141q166 0 310.5 -62.5t253 -171t171 -254t62.5 -311.5h190q0 205 -78 384t-212 313.5t-313 212t-384 77.5v-188z" />
<glyph unicode="s" horiz-adv-x="2045" d="M254 770q0 160 60.5 300t165 245.5t244.5 166t300 60.5t300 -60.5t244.5 -166t165 -245.5t60.5 -300t-60.5 -300t-165 -244.5t-244.5 -165t-300 -60.5t-300 60.5t-244.5 165t-165 244.5t-60.5 300zM573 307l252 4l410 926l-252 -4zM1106 453q0 -61 43 -104.5t104 -43.5 t104.5 43t43.5 105q0 59 -43 103t-105 44q-61 0 -104 -44t-43 -103z" />
<glyph unicode="t" horiz-adv-x="2045" d="M254 770q0 160 60.5 300t165 245.5t244.5 166t300 60.5t300 -60.5t244.5 -166t165 -245.5t60.5 -300t-60.5 -300t-165 -244.5t-244.5 -165t-300 -60.5t-300 60.5t-244.5 165t-165 244.5t-60.5 300zM659 651q0 -86 42 -162.5t108 -123.5q18 -12 55 -33t70 -27 q76 -15 149 -14h18q81 2 134 2q8 0 15 -1q62 0 104 32q37 37 37 88q-4 72 -49 103q-33 24 -78 24q-15 0 -31 -2q-14 0 -61 -1q-9 0 -18 -1q-38 0 -79 4q-31 -2 -58.5 1t-51 15t-39 34.5t-21.5 61.5v129h357q68 0 100 38q31 36 31 79q0 49 -35 89q-33 38 -96 38h-357v125 q0 51 -37 88t-88 37q-49 -2 -83.5 -35t-37.5 -90v-498z" />
<glyph unicode="u" horiz-adv-x="2050" d="M254 770q0 160 60.5 300t165 245.5t244.5 166t300 60.5t300 -60.5t244.5 -166t165 -245.5t60.5 -300t-60.5 -300t-165 -244.5t-244.5 -165t-300 -60.5t-300 60.5t-244.5 165t-165 244.5t-60.5 300zM727 844h129v-336q0 -61 14 -100q12 -35 50 -66q18 -16 39.5 -26.5 t46.5 -20.5q25 -8 47 -12t55 -4q59 0 109 12q25 6 52 15t58 26v149q-76 -47 -145 -47q-43 0 -72 21q-27 12 -37 41q-4 10 -4 35v67v246h221v170h-221v221h-137q-10 -76 -33 -123q-27 -51 -63 -82q-23 -16 -51.5 -28.5t-57.5 -22.5v-135z" />
<glyph unicode="v" horiz-adv-x="2045" d="M254 770q0 160 60.5 300t165 245.5t244.5 166t300 60.5t300 -60.5t244.5 -166t165 -245.5t60.5 -300t-60.5 -300t-165 -244.5t-244.5 -165t-300 -60.5t-300 60.5t-244.5 165t-165 244.5t-60.5 300zM557 406l258 108v-135h381l-133 334h201h2q45 0 86 17.5t71.5 48 t48 71.5t17.5 88q0 45 -17.5 86t-48 71.5t-71.5 48t-86 17.5q-86 0 -148.5 -54t-75.5 -136h-8q-10 82 -73.5 136t-147.5 54q-47 0 -88 -17.5t-71.5 -48t-48 -71.5t-17.5 -86q0 -47 17.5 -87t47 -70.5t69.5 -49t87 -18.5h6v-103l-258 97v-301zM750 938q0 27 18 45t45 18 t45.5 -18t18.5 -45q0 -29 -18.5 -46.5t-45.5 -17.5t-45 17.5t-18 46.5zM1206 938q0 27 18.5 45t45.5 18t45 -18t18 -45q0 -29 -18.5 -46.5t-44.5 -17.5q-27 0 -45.5 17.5t-18.5 46.5z" />
<glyph unicode="w" horiz-adv-x="2050" d="M258 770q0 160 60.5 300t165 245.5t244.5 166t300 60.5t300 -60.5t245.5 -166t166 -245.5t60.5 -300t-60.5 -300t-166 -244.5t-245.5 -165t-300 -60.5t-300 60.5t-244.5 165t-165 244.5t-60.5 300zM450 568q17 -11 58 -3q43 8 92 24.5t95 38t85 46t62 49.5q20 25 12 38 t-29.5 16t-49 -2t-44.5 -13q-16 -10 -59 -27l-90 -33q-53 -20 -119 -40q-12 -6 -23 -26q-9 -18 -9 -35q0 -21 19 -33zM602 1015q2 -17 12 -20q8 -4 31 -4h53q31 0 67 1t73 1q4 -43 8 -81t12 -66q12 -51 59.5 -72.5t100.5 -25.5v-134q-23 0 -48.5 1t-43.5 -1q-39 0 -73 -13 t-59.5 -31.5t-43 -41t-23.5 -41.5q-8 -18 -11 -47.5t-5 -58.5q-2 -35 -2 -70q0 -39 18 -58.5t39.5 -19.5t38 18.5t14.5 55.5q-2 20 -1 37q0 26 3 45q6 33 17.5 52.5t26 28.5t30.5 11q14 2 45 5t78 3v-202q0 -23 17.5 -35t40 -12t42 12t19.5 43v80q0 55 -2 121q39 -2 58 -4.5 t36 -2.5q23 0 39 -8t27.5 -26.5t17.5 -50t8 -82.5q0 -45 17.5 -68t37 -23t37 22.5t21.5 65.5q3 35 3 64.5t-3 52.5q-6 47 -20.5 78t-33 47.5t-37.5 26.5q-23 12 -85 19t-121 7q0 47 1 76t-1 51q14 2 26.5 7.5t22.5 7.5q53 16 77.5 58t28.5 91q0 10 1 36t1 58q43 0 60.5 1 t27.5 1q16 0 38 1.5t40.5 6.5t31.5 14t11 28q-2 23 -14 38t-64 17q-12 0 -41.5 -3t-87.5 -3q0 74 -6 129t-16 74q-10 16 -28.5 21t-37 2t-31 -16.5t-10.5 -33.5q2 -12 5.5 -56t3.5 -116q-39 1 -74 1t-66 -1q-61 -2 -73 -2h-19q0 47 1 75.5t5 53.5q2 15 2 28q0 39 -14 56 q-18 23 -49 22q-29 0 -40 -18.5t-15 -44.5q-2 -12 -1 -57.5t5 -116.5q-57 2 -108 3h-32q-30 0 -53 -1q-14 -2 -25.5 -17.5t-15.5 -33.5q-3 -12 -3 -24q0 -6 1 -12zM940 997h107q66 0 133 2v-63q0 -29 -2 -43q0 -23 -22.5 -38t-53.5 -21.5t-63.5 -3t-57.5 15.5q-23 12 -31 55 t-10 96zM1297 725q7 -16 20.5 -27.5t30 -17.5l28.5 -10q10 -4 37 -17.5t57.5 -31t59.5 -32t45 -16.5q18 -8 37.5 -15t35 -7t24.5 8t9 33q0 23 -20.5 45t-53 42.5t-73.5 41t-78 41.5q-74 41 -107 43h-4q-31 0 -47 -39q-4 -13 -4 -24q0 -9 3 -17z" />
<glyph unicode="x" d="M254 770q0 160 60.5 300t165 245.5t244.5 166t300 60.5t300 -60.5t244.5 -166t165 -245.5t60.5 -300t-60.5 -300t-165 -244.5t-244.5 -165t-300 -60.5t-300 60.5t-244.5 165t-165 244.5t-60.5 300zM500 551h243l193 317l-143 256h-244l143 -256zM903 651l248 -438h260 l-248 438l385 676h-260z" />
<glyph unicode="y" horiz-adv-x="2045" d="M254 770q0 160 60.5 300t165 245.5t244.5 166t300 60.5t300 -60.5t244.5 -166t165 -245.5t60.5 -300t-60.5 -300t-165 -244.5t-244.5 -165t-300 -60.5t-300 60.5t-244.5 165t-165 244.5t-60.5 300zM551 770q0 -63 44 -107.5t107 -44.5q55 0 99 37l309 -155v-8 q0 -63 44 -108.5t108 -45.5q63 0 108 45t45 109q0 63 -45 107t-108 44q-55 0 -99 -37l-309 156q0 2 1 4t1 4q0 4 -1 5t-1 5l309 154q43 -37 99 -37q63 0 108 45t45 109q0 63 -45 107t-108 44t-107.5 -44t-44.5 -107v-9l-309 -155q-43 37 -99 37q-63 0 -107 -45.5t-44 -108.5 z" />
<glyph unicode="z" horiz-adv-x="2050" d="M258 770q0 160 60.5 300t165 245.5t244.5 166t300 60.5t300 -60.5t245.5 -166t166 -245.5t60.5 -300t-60.5 -300t-166 -244.5t-245.5 -165t-300 -60.5t-300 60.5t-244.5 165t-165 244.5t-60.5 300zM575 1016q0 -61 37 -137q18 -41 45 -83t62 -87q6 -8 14 -17.5l19 -23.5 q236 -307 276 -461q41 152 277 459l34 43q35 47 61.5 89t45.5 81q37 80 37 137q0 84 -64 145q-66 59 -155 60q-88 0 -144 -54q-59 -53 -92 -155q-31 104 -90 157q-57 51 -143 52q-90 0 -156 -60q-64 -61 -64 -145z" />
<glyph unicode="{" d="M254 770q0 160 60.5 300t165 245.5t244.5 166t300 60.5t300 -60.5t244.5 -166t165 -245.5t60.5 -300t-60.5 -300t-165 -244.5t-244.5 -165t-300 -60.5t-300 60.5t-244.5 165t-165 244.5t-60.5 300zM543 305h960v31v924h-960v-955zM639 401v762h768v-762h-768zM752 874h30 q14 41 39 78q27 43 51 45h13q8 0 18 2h33h16v-415q0 -18 -4 -25q-8 -12 -20 -18q-4 0 -11.5 -1t-17.5 -3t-18.5 -2t-14.5 -3v-30h314v30q-8 2 -15.5 3.5l-17.5 3.5t-17.5 3t-11.5 3q-14 8 -20 18q-6 12 -6 25v411h18h33q10 -2 18 -2h13q25 -2 51 -45q25 -37 39 -78h30v209 h-542v-209z" />
<glyph unicode="|" d="M254 770q0 160 60.5 300t165 245.5t244.5 166t300 60.5t300 -60.5t244.5 -166t165 -245.5t60.5 -300t-60.5 -300t-165 -244.5t-244.5 -165t-300 -60.5t-300 60.5t-244.5 165t-165 244.5t-60.5 300zM594 342h860v860h-860v-860zM659 408v729l730 -729h-730z" />
<glyph unicode="}" d="M254 770q0 160 60.5 300t165 245.5t244.5 166t300 60.5t300 -60.5t244.5 -166t165 -245.5t60.5 -300t-60.5 -300t-165 -244.5t-244.5 -165t-300 -60.5t-300 60.5t-244.5 165t-165 244.5t-60.5 300zM575 352q0 -35 15 -57q14 -25 41 -45q37 -27 78 -27h2q27 0 45 8 q23 10 38 22.5t31 29.5q47 55 82 147q18 45 33.5 96.5t28.5 106.5q115 74 231 127q16 8 25 10l52 -24l50 -21q35 -12 67.5 -20.5t65.5 -8.5q29 0 51 9q16 2 37 16q27 20 39 49q12 31 12 64q0 25 -10 49q-8 16 -24 32q-20 18 -47 25q-25 6 -52 6q-49 0 -114 -16 q-53 -14 -121 -43l-12 6q-51 31 -102.5 67.5t-96.5 77.5v21q0 59 -6 112q-4 39 -11.5 73t-21.5 63l-16 27q-8 13 -23 24q-14 10 -29 16q-18 6 -34 6q-25 0 -41 -8q-43 -16 -66 -45q-25 -35 -24 -74q2 -45 26 -92q43 -78 125 -155l14 -15q-4 -70 -13 -145.5t-23 -149.5 q-66 -43 -119 -88q-80 -63 -127 -123q-23 -31 -39 -63q-17 -37 -17 -70zM680 365.5q0 -29.5 4 -33.5q6 -4 32.5 0t59.5 47q20 27 31.5 68.5t28.5 89.5l-67 -54q-32 -25 -52 -47q-37 -41 -37 -70.5zM842 1243.5q-4 20.5 10 30.5q12 8 26.5 -2t20.5 -25q2 -6 6 -21.5t6 -33.5 l4 -36q2 -17 3 -28q-8 6 -18.5 19.5t-19.5 27.5l-18 24q-8 11 -10 15q-6 9 -10 29.5zM995 770q29 18 60 34l59 30v2q-27 16 -51 34l-51 37l-7.5 -68.5t-9.5 -68.5zM1364 823q2 -2 15 -5l30 -7q16 -4 30.5 -8t20.5 -4q27 0 34 8t7 14q0 4 -6 12.5t-29 8.5q-41 -1 -102 -19z " />
<glyph unicode="&#xa7;" d="M254 770q0 160 60.5 300t165 245.5t244.5 166t300 60.5t300 -60.5t244.5 -166t165 -245.5t60.5 -300t-60.5 -300t-165 -244.5t-244.5 -165t-300 -60.5t-300 60.5t-244.5 165t-165 244.5t-60.5 300zM666 256h206v737h-165v-567h-41v-170zM707 1087h165v166h-165v-166z M932 520h166v473h-166v-473zM932 1087h166v166h-166v-166zM1118 256h207v737h-168v-567h-39v-170zM1157 1087h168v166h-168v-166z" />
<glyph unicode="&#xad;" d="M252 728v38v40q0 19 2 38l74 12l4 33q2 16 6 33l-64 36q18 74 54 144l71 -12q8 14 15.5 28.5t17.5 28.5l-47 55q23 33 47 62l51 57l64 -37l24 22q12 11 27 21l-25 68q31 23 65 41t69 34l45 -55q35 14 63 23v73q37 10 74 16.5t78 10.5l24 -70q10 2 33 2h16q8 0 17 -2 l24 70q41 -4 78 -10t74 -17v-73q29 -8 63 -23l45 55q35 -16 69 -34.5t65 -40.5l-25 -68l26 -21l25 -22l62 37q29 -29 53 -57.5t47 -61.5l-47 -55q10 -14 17 -28.5t16 -28.5l71 12q16 -35 29.5 -71t24.5 -73l-64 -36q4 -16 6 -33l4 -33l72 -12q4 -18 4 -38v-40v-38 q0 -19 -4 -38l-72 -12l-4 -33q-2 -16 -6 -33l64 -37q-10 -37 -23.5 -72.5t-30.5 -70.5l-71 12q-16 -33 -33 -57l47 -55q-23 -33 -47.5 -61.5t-52.5 -57.5l-62 37l-25 -22l-26 -21l25 -68q-57 -43 -134 -76l-45 56q-35 -14 -63 -23v-73q-70 -20 -152 -27l-24 70q-8 -2 -17 -3 h-16q-23 0 -33 3l-24 -70q-82 6 -152 27v73q-29 8 -63 23l-45 -56q-76 33 -134 76l25 68q-14 10 -27 21l-24 22l-64 -37l-51 57q-25 29 -47 62l47 55q-16 25 -33 57l-71 -12q-35 70 -54 143l64 37q-4 16 -6 33l-4 33l-74 12q-2 19 -2 38zM461 795q0 -123 48 -227.5 t134 -178.5q-61 72 -96 162t-35 192q0 111 42 208.5t114.5 171t171 115.5t209.5 42q102 0 191 -36t161 -97q-74 86 -178.5 135t-225.5 49q-111 0 -209 -42t-170.5 -114.5t-114.5 -170.5t-42 -209zM633 758q0 -92 37 -170t100 -131q-47 53 -72.5 119.5t-25.5 142.5 q0 82 31.5 155.5t85 128t126 86t156.5 31.5q78 0 144.5 -26.5t119.5 -73.5q-55 63 -133 100t-168 37q-84 0 -156.5 -31.5t-127 -85t-86 -127t-31.5 -155.5z" />
<glyph unicode="&#xae;" d="M254 770q0 160 60.5 300t165 245.5t244.5 166t300 60.5q150 0 282 -53t234 -145.5t168 -218.5t82 -271q-176 -2 -329.5 -67.5t-270.5 -182.5t-182.5 -270.5t-67.5 -329.5q-145 14 -270 81t-217.5 169t-145.5 234t-53 282zM770 1087h166v-616h108v616h164v101h-438v-101z M1022 0h2l770 772q-160 0 -300 -60.5t-245.5 -165t-166 -244.5t-60.5 -300v-2z" />
<glyph unicode="&#xe4;" d="M254 770q0 160 60.5 300t165 245.5t244.5 166t300 60.5t300 -60.5t244.5 -166t165 -245.5t60.5 -300t-60.5 -300t-165 -244.5t-244.5 -165t-300 -60.5t-300 60.5t-244.5 165t-165 244.5t-60.5 300zM492 369h73q98 0 185 45q59 -47 131.5 -75t154.5 -28q84 0 157 28 t132 75q86 -45 184 -45h74v147h-74q-23 0 -42 4t-37 10q33 53 51 115t18 129q0 66 -18.5 128.5t-50.5 115.5q18 6 37.5 10t41.5 4h74v148h-74q-98 0 -184 -45q-59 47 -132 73.5t-157 26.5q-82 0 -154.5 -26.5t-131.5 -73.5q-86 45 -185 45h-73v-148h73q23 0 42.5 -4 t37.5 -10q-33 -53 -51.5 -115.5t-18.5 -128.5q0 -68 18.5 -129t51.5 -115q-18 -6 -37.5 -10t-42.5 -4h-73v-147zM723 774q0 43 11 83t32 75q55 -68 55 -158q0 -88 -55 -160q-20 35 -31.5 76t-11.5 84zM870 508q47 53 74 120.5t27 145.5q0 76 -26.5 143.5t-74.5 120.5 q35 23 77 36t89 13q90 0 168 -49q-47 -53 -73.5 -120.5t-26.5 -143.5q0 -78 26.5 -145.5t73.5 -120.5q-78 -49 -168 -49q-47 0 -89 13t-77 36zM1251 774q0 45 15.5 85t42.5 73q20 -35 31.5 -75t11.5 -83t-11.5 -84t-31.5 -76q-27 35 -42.5 74t-15.5 86z" />
<glyph unicode="&#xf6;" d="M254 770q0 160 60.5 300t165 245.5t244.5 166t300 60.5t300 -60.5t244.5 -166t165 -245.5t60.5 -300t-60.5 -300t-165 -244.5t-244.5 -165t-300 -60.5t-300 60.5t-244.5 165t-165 244.5t-60.5 300zM709 1006q0 -74 21.5 -130.5t59 -96.5t88 -60.5t107.5 -20.5 q43 0 91 18.5t83 47.5q14 12 22.5 23.5t12.5 19.5q8 20 8 33q0 6 -5 12t-15 2t-31 -11t-41 -7q-104 0 -161.5 77.5t-57.5 196.5q0 35 9 73t28.5 69.5t49.5 52t71 20.5q20 0 52 -10t56 -29q59 -53 84 -149.5t25 -190.5q0 -135 -54.5 -269t-146.5 -245q-72 -88 -149.5 -146.5 t-155.5 -99.5q-14 -4 -15 -16q0 -14 16.5 -20.5t26.5 -6.5q41 0 100.5 20.5t139.5 67.5q98 57 181 140.5t144.5 178.5t95.5 199.5t34 204.5q0 88 -24.5 168t-73 141.5t-118 97.5t-159.5 36q-45 0 -99.5 -15.5t-95.5 -38.5q-59 -33 -98 -74.5t-62.5 -87.5t-33.5 -91t-10 -84z " />
<glyph unicode="&#x2000;" horiz-adv-x="770" />
<glyph unicode="&#x2001;" horiz-adv-x="1542" />
<glyph unicode="&#x2002;" horiz-adv-x="770" />
<glyph unicode="&#x2003;" horiz-adv-x="1542" />
<glyph unicode="&#x2004;" horiz-adv-x="514" />
<glyph unicode="&#x2005;" horiz-adv-x="385" />
<glyph unicode="&#x2006;" horiz-adv-x="256" />
<glyph unicode="&#x2007;" horiz-adv-x="256" />
<glyph unicode="&#x2008;" horiz-adv-x="192" />
<glyph unicode="&#x2009;" horiz-adv-x="307" />
<glyph unicode="&#x200a;" horiz-adv-x="83" />
<glyph unicode="&#x2010;" d="M252 728v38v40q0 19 2 38l74 12l4 33q2 16 6 33l-64 36q18 74 54 144l71 -12q8 14 15.5 28.5t17.5 28.5l-47 55q23 33 47 62l51 57l64 -37l24 22q12 11 27 21l-25 68q31 23 65 41t69 34l45 -55q35 14 63 23v73q37 10 74 16.5t78 10.5l24 -70q10 2 33 2h16q8 0 17 -2 l24 70q41 -4 78 -10t74 -17v-73q29 -8 63 -23l45 55q35 -16 69 -34.5t65 -40.5l-25 -68l26 -21l25 -22l62 37q29 -29 53 -57.5t47 -61.5l-47 -55q10 -14 17 -28.5t16 -28.5l71 12q16 -35 29.5 -71t24.5 -73l-64 -36q4 -16 6 -33l4 -33l72 -12q4 -18 4 -38v-40v-38 q0 -19 -4 -38l-72 -12l-4 -33q-2 -16 -6 -33l64 -37q-10 -37 -23.5 -72.5t-30.5 -70.5l-71 12q-16 -33 -33 -57l47 -55q-23 -33 -47.5 -61.5t-52.5 -57.5l-62 37l-25 -22l-26 -21l25 -68q-57 -43 -134 -76l-45 56q-35 -14 -63 -23v-73q-70 -20 -152 -27l-24 70q-8 -2 -17 -3 h-16q-23 0 -33 3l-24 -70q-82 6 -152 27v73q-29 8 -63 23l-45 -56q-76 33 -134 76l25 68q-14 10 -27 21l-24 22l-64 -37l-51 57q-25 29 -47 62l47 55q-16 25 -33 57l-71 -12q-35 70 -54 143l64 37q-4 16 -6 33l-4 33l-74 12q-2 19 -2 38zM461 795q0 -123 48 -227.5 t134 -178.5q-61 72 -96 162t-35 192q0 111 42 208.5t114.5 171t171 115.5t209.5 42q102 0 191 -36t161 -97q-74 86 -178.5 135t-225.5 49q-111 0 -209 -42t-170.5 -114.5t-114.5 -170.5t-42 -209zM633 758q0 -92 37 -170t100 -131q-47 53 -72.5 119.5t-25.5 142.5 q0 82 31.5 155.5t85 128t126 86t156.5 31.5q78 0 144.5 -26.5t119.5 -73.5q-55 63 -133 100t-168 37q-84 0 -156.5 -31.5t-127 -85t-86 -127t-31.5 -155.5z" />
<glyph unicode="&#x2011;" d="M252 728v38v40q0 19 2 38l74 12l4 33q2 16 6 33l-64 36q18 74 54 144l71 -12q8 14 15.5 28.5t17.5 28.5l-47 55q23 33 47 62l51 57l64 -37l24 22q12 11 27 21l-25 68q31 23 65 41t69 34l45 -55q35 14 63 23v73q37 10 74 16.5t78 10.5l24 -70q10 2 33 2h16q8 0 17 -2 l24 70q41 -4 78 -10t74 -17v-73q29 -8 63 -23l45 55q35 -16 69 -34.5t65 -40.5l-25 -68l26 -21l25 -22l62 37q29 -29 53 -57.5t47 -61.5l-47 -55q10 -14 17 -28.5t16 -28.5l71 12q16 -35 29.5 -71t24.5 -73l-64 -36q4 -16 6 -33l4 -33l72 -12q4 -18 4 -38v-40v-38 q0 -19 -4 -38l-72 -12l-4 -33q-2 -16 -6 -33l64 -37q-10 -37 -23.5 -72.5t-30.5 -70.5l-71 12q-16 -33 -33 -57l47 -55q-23 -33 -47.5 -61.5t-52.5 -57.5l-62 37l-25 -22l-26 -21l25 -68q-57 -43 -134 -76l-45 56q-35 -14 -63 -23v-73q-70 -20 -152 -27l-24 70q-8 -2 -17 -3 h-16q-23 0 -33 3l-24 -70q-82 6 -152 27v73q-29 8 -63 23l-45 -56q-76 33 -134 76l25 68q-14 10 -27 21l-24 22l-64 -37l-51 57q-25 29 -47 62l47 55q-16 25 -33 57l-71 -12q-35 70 -54 143l64 37q-4 16 -6 33l-4 33l-74 12q-2 19 -2 38zM461 795q0 -123 48 -227.5 t134 -178.5q-61 72 -96 162t-35 192q0 111 42 208.5t114.5 171t171 115.5t209.5 42q102 0 191 -36t161 -97q-74 86 -178.5 135t-225.5 49q-111 0 -209 -42t-170.5 -114.5t-114.5 -170.5t-42 -209zM633 758q0 -92 37 -170t100 -131q-47 53 -72.5 119.5t-25.5 142.5 q0 82 31.5 155.5t85 128t126 86t156.5 31.5q78 0 144.5 -26.5t119.5 -73.5q-55 63 -133 100t-168 37q-84 0 -156.5 -31.5t-127 -85t-86 -127t-31.5 -155.5z" />
<glyph unicode="&#x2012;" d="M252 728v38v40q0 19 2 38l74 12l4 33q2 16 6 33l-64 36q18 74 54 144l71 -12q8 14 15.5 28.5t17.5 28.5l-47 55q23 33 47 62l51 57l64 -37l24 22q12 11 27 21l-25 68q31 23 65 41t69 34l45 -55q35 14 63 23v73q37 10 74 16.5t78 10.5l24 -70q10 2 33 2h16q8 0 17 -2 l24 70q41 -4 78 -10t74 -17v-73q29 -8 63 -23l45 55q35 -16 69 -34.5t65 -40.5l-25 -68l26 -21l25 -22l62 37q29 -29 53 -57.5t47 -61.5l-47 -55q10 -14 17 -28.5t16 -28.5l71 12q16 -35 29.5 -71t24.5 -73l-64 -36q4 -16 6 -33l4 -33l72 -12q4 -18 4 -38v-40v-38 q0 -19 -4 -38l-72 -12l-4 -33q-2 -16 -6 -33l64 -37q-10 -37 -23.5 -72.5t-30.5 -70.5l-71 12q-16 -33 -33 -57l47 -55q-23 -33 -47.5 -61.5t-52.5 -57.5l-62 37l-25 -22l-26 -21l25 -68q-57 -43 -134 -76l-45 56q-35 -14 -63 -23v-73q-70 -20 -152 -27l-24 70q-8 -2 -17 -3 h-16q-23 0 -33 3l-24 -70q-82 6 -152 27v73q-29 8 -63 23l-45 -56q-76 33 -134 76l25 68q-14 10 -27 21l-24 22l-64 -37l-51 57q-25 29 -47 62l47 55q-16 25 -33 57l-71 -12q-35 70 -54 143l64 37q-4 16 -6 33l-4 33l-74 12q-2 19 -2 38zM461 795q0 -123 48 -227.5 t134 -178.5q-61 72 -96 162t-35 192q0 111 42 208.5t114.5 171t171 115.5t209.5 42q102 0 191 -36t161 -97q-74 86 -178.5 135t-225.5 49q-111 0 -209 -42t-170.5 -114.5t-114.5 -170.5t-42 -209zM633 758q0 -92 37 -170t100 -131q-47 53 -72.5 119.5t-25.5 142.5 q0 82 31.5 155.5t85 128t126 86t156.5 31.5q78 0 144.5 -26.5t119.5 -73.5q-55 63 -133 100t-168 37q-84 0 -156.5 -31.5t-127 -85t-86 -127t-31.5 -155.5z" />
<glyph unicode="&#x2013;" horiz-adv-x="1527" d="M252 728v38v40q0 19 1 38l49 12l3 33q1 16 4 33l-42 36q12 74 35 144l48 -12l10 28.5t11 28.5l-31 55q15 33 31 62l34 57l42 -37l17 22q8 11 17 21l-16 68q20 23 42.5 41t45.5 34l30 -55q23 14 42 23v73q24 10 49 16.5t52 10.5l16 -70q7 2 22 2h11q5 0 11 -2l16 70 q27 -4 51.5 -10t48.5 -17v-73q19 -8 43 -23l29 55q23 -16 45.5 -34.5t43.5 -40.5l-17 -68l17 -21l17 -22l41 37q19 -29 35.5 -57.5t31.5 -61.5l-32 -55q7 -14 12 -28.5l10 -28.5l48 12q11 -35 19.5 -71t15.5 -73l-42 -36q3 -16 4 -33l3 -33l47 -12q3 -18 3 -38v-40v-38 q0 -19 -3 -38l-47 -12l-3 -33q-1 -16 -4 -33l42 -37q-7 -37 -15.5 -72.5t-19.5 -70.5l-48 12q-11 -33 -22 -57l32 -55q-15 -33 -31.5 -61.5t-35.5 -57.5l-41 37l-17 -22l-17 -21l17 -68q-38 -43 -89 -76l-29 56q-23 -14 -43 -23v-73q-46 -20 -100 -27l-16 70q-5 -2 -11 -3 h-11q-15 0 -22 3l-16 -70q-54 6 -101 27v73q-19 8 -42 23l-30 -56q-50 33 -88 76l16 68q-10 10 -17 21l-17 22l-42 -37l-34 57q-16 29 -31 62l31 55q-11 25 -21 57l-48 -12q-23 70 -35 143l42 37q-3 16 -4 33l-3 33l-49 12q-1 19 -1 38zM390 795q0 -123 32 -227.5t89 -178.5 q-41 72 -64 162t-23 192q0 111 28 208.5t76 171t113.5 115.5t138.5 42q68 0 127 -36t107 -97q-49 86 -118.5 135t-149.5 49q-73 0 -138 -42t-113.5 -114.5t-76.5 -170.5t-28 -209zM505 758q0 -92 24 -170q25 -78 67 -131q-31 53 -48.5 119.5t-17.5 142.5q0 82 21 155.5 t56.5 128t83.5 86t104 31.5q52 0 96 -26.5t79 -73.5q-37 63 -88.5 100t-110.5 37q-56 0 -104 -31.5t-84 -85t-57 -127t-21 -155.5z" />
<glyph unicode="&#x2014;" horiz-adv-x="2551" d="M252 728v38v40q0 19 3 38l97 12l6 33q3 16 8 33l-84 36q24 74 70 144l95 -12q11 14 20.5 28.5t23.5 28.5l-63 55q30 33 63 62l68 57l84 -37l33 22q16 11 35 21l-33 68q41 23 86 41t91 34l60 -55q46 14 84 23v73q49 10 98 16.5t103 10.5l32 -70q14 2 44 2h22q11 0 21 -2 l33 70q54 -4 103 -10t98 -17v-73q38 -8 84 -23l60 55q46 -16 91 -34.5t85 -40.5l-32 -68l34 -21l34 -22l81 37q38 -29 70.5 -57.5t62.5 -61.5l-62 -55q14 -14 23 -28.5t20 -28.5l95 12q22 -35 39.5 -71t31.5 -73l-84 -36q5 -16 8 -33l5 -33l95 -12q5 -18 6 -38v-40v-38 q0 -19 -6 -38l-95 -12l-5 -33q-3 -16 -8 -33l84 -37q-14 -37 -31.5 -72.5t-39.5 -70.5l-95 12q-22 -33 -43 -57l62 -55q-30 -33 -62.5 -61.5t-70.5 -57.5l-81 37l-34 -22l-34 -21l32 -68q-76 -43 -176 -76l-60 56q-46 -14 -84 -23v-73q-92 -20 -201 -27l-33 70 q-11 -2 -21 -3h-22q-30 0 -44 3l-32 -70q-109 6 -201 27v73q-38 8 -84 23l-60 -56q-100 33 -177 76l33 68q-19 10 -35 21l-33 22l-84 -37l-68 57q-33 29 -63 62l63 55q-22 25 -44 57l-95 -12q-46 70 -70 143l84 37q-5 16 -8 33l-6 33l-97 12q-3 19 -3 38zM529 795 q0 -123 64 -227.5t178 -178.5q-81 72 -127.5 162t-46.5 192q0 111 55.5 208.5t152 171t227 115.5t276.5 42q136 0 254.5 -36t213.5 -97q-98 86 -236.5 135t-298.5 49q-147 0 -277.5 -42t-227 -114.5t-152 -170.5t-55.5 -209zM757 758q0 -92 49 -170t133 -131 q-62 53 -96 119.5t-34 142.5q0 82 42 155.5t112.5 128t167 86t207.5 31.5q103 0 191.5 -26.5t159.5 -73.5q-73 63 -176.5 100t-223.5 37q-111 0 -207.5 -31.5t-168.5 -85t-114 -127t-42 -155.5z" />
<glyph unicode="&#x202f;" horiz-adv-x="307" />
<glyph unicode="&#x205f;" horiz-adv-x="385" />
<glyph unicode="&#x20ac;" d="M254 770q0 160 60.5 300t165 245.5t244.5 166t300 60.5t300 -60.5t244.5 -166t165 -245.5t60.5 -300t-60.5 -300t-165 -244.5t-244.5 -165t-300 -60.5t-300 60.5t-244.5 165t-165 244.5t-60.5 300zM631 551q0 -88 35 -158q27 -51 69 -88q59 -51 137 -74q70 -20 152 -20 q35 0 67.5 3t67.5 13q51 12 96 37q35 20 65 48t52 65q45 72 45 174v471h-164v-471q0 -29 -5 -47.5t-13 -34.5q-12 -23 -31 -39q-29 -25 -76 -41q-23 -6 -49 -10t-55 -4q-51 0 -94 12q-16 4 -30.5 9t-27.5 14q-37 23 -55 51q-10 16 -16 37.5t-6 52.5v471h-164v-471zM860 627 q-20 -53 1.5 -103.5t74.5 -70.5q53 -23 103.5 -0.5t70.5 75.5q14 33 9 67t-23 60l243 631l-139 53l-244 -630q-69 -14 -96 -82z" />
<glyph unicode="&#xe000;" horiz-adv-x="1540" d="M0 1540h1540v-1540h-1540v1540z" />
</font>
</defs>
</svg>
